<?xml version="1.0" encoding="UTF-8"?>
<!DOCTYPE svg PUBLIC "-//W3C//DTD SVG 1.1//EN" "http://www.w3.org/Graphics/SVG/1.1/DTD/svg11.dtd">
<!-- Creator: CorelDRAW X7 -->
<svg xmlns="http://www.w3.org/2000/svg" xml:space="preserve" width="8.5in" height="11in" version="1.1" style="shape-rendering:geometricPrecision; text-rendering:geometricPrecision; image-rendering:optimizeQuality; fill-rule:evenodd; clip-rule:evenodd"
viewBox="0 0 8500 11000"
 xmlns:xlink="http://www.w3.org/1999/xlink">
 <defs>
  <style type="text/css">
   <![CDATA[
    .str0 {stroke:#373435;stroke-width:6.94488}
    .fil4 {fill:none}
    .fil2 {fill:url(#id1)}
    .fil0 {fill:url(#id2)}
    .fil1 {fill:url(#id3)}
    .fil3 {fill:url(#id4)}
   ]]>
  </style>
   <clipPath id="id0">
    <path d="M2663 1755c144,0 259,116 259,259 0,143 -115,259 -259,259 -143,0 -259,-116 -259,-259 0,-143 116,-259 259,-259z"/>
   </clipPath>
  <linearGradient id="id1" gradientUnits="userSpaceOnUse" x1="2480.26" y1="2197.17" x2="2846.65" y2="1830.78">
   <stop offset="0" style="stop-opacity:1; stop-color:#263886"/>
   <stop offset="1" style="stop-opacity:1; stop-color:#0E203A"/>
  </linearGradient>
  <linearGradient id="id2" gradientUnits="userSpaceOnUse" x1="2366.62" y1="2310.79" x2="2960.3" y2="1717.1">
   <stop offset="0" style="stop-opacity:1; stop-color:#CBF251"/>
   <stop offset="1" style="stop-opacity:1; stop-color:#90B704"/>
  </linearGradient>
  <linearGradient id="id3" gradientUnits="userSpaceOnUse" x1="2552.26" y1="2419.62" x2="2552.26" y2="1830.69">
   <stop offset="0" style="stop-opacity:1; stop-color:#CBF251"/>
   <stop offset="1" style="stop-opacity:1; stop-color:#6D990D"/>
  </linearGradient>
  <linearGradient id="id4" gradientUnits="userSpaceOnUse" x1="-12.5118" y1="3022.81" x2="-245.016" y2="3162.44">
   <stop offset="0" style="stop-opacity:1; stop-color:white"/>
   <stop offset="0.2" style="stop-opacity:1; stop-color:#F3F9F9"/>
   <stop offset="0.690196" style="stop-opacity:1; stop-color:#DBECEE"/>
   <stop offset="1" style="stop-opacity:1; stop-color:#D2E7EA"/>
  </linearGradient>
 </defs>
 <g id="Layer_x0020_1">
  <metadata id="CorelCorpID_0Corel-Layer"/>
  <g>
  </g>
  <g style="clip-path:url(#id0)">
   <g>
    <g id="_336109608">
     <path class="fil0" d="M2960 2311c164,-164 164,-430 0,-594 -164,-164 -429,-164 -593,0 -164,164 -164,430 0,594 164,164 429,164 593,0z"/>
     <path class="fil1" d="M2847 2197l-367 -366 -222 291c19,72 56,137 109,189 52,52 117,90 188,109l292 -223z"/>
     <path class="fil2" d="M2847 2197c101,-101 101,-265 0,-366 -102,-101 -265,-101 -367,0 -101,101 -101,265 0,366 102,101 265,101 367,0z"/>
     <path class="fil3" d="M2828 1988c0,-9 -3,-17 -9,-24 -13,-12 -34,-12 -47,0l-109 109 -108 -109c-13,-12 -34,-12 -46,1 -13,13 -13,33 -1,46l132 132c13,12 34,12 47,0l131 -132c1,0 1,0 1,0 6,-6 9,-15 9,-23l0 0z"/>
    </g>
   </g>
  </g>
  <path class="fil4 str0" d="M2663 1755c144,0 259,116 259,259 0,143 -115,259 -259,259 -143,0 -259,-116 -259,-259 0,-143 116,-259 259,-259z"/>
 </g>
</svg>
