<svg xmlns="http://www.w3.org/2000/svg" width="38.833" height="38.833" viewBox="0 0 38.833 38.833">
    <path fill="#fff" d="M10 10h37.316v31.248H10z" transform="translate(-9.242 -9.242)"/>
    <path fill="#98eaf9" d="M10 10h37.316v6.068H10z" transform="translate(-9.242 -9.242)"/>
    <path fill="#ff7d97" d="M76 188h27.3v10.315H76z" transform="translate(-70.236 -173.741)"/>
    <path fill="#66dff6" d="M256 276l9.568 5.524-2.408 1.39 4.32 7.483-4.752 2.743-4.32-7.483-2.408 1.391z" transform="translate(-236.587 -255.067)"/>
    <g>
        <path d="M38.074 0H.758A.758.758 0 0 0 0 .758v31.249a.758.758 0 0 0 .758.758H22.2l3.284 5.688a.758.758 0 0 0 1.036.278l4.752-2.743a.758.758 0 0 0 .278-1.036l-1.262-2.187h7.783a.758.758 0 0 0 .758-.758V.758A.758.758 0 0 0 38.074 0zm-.758 1.517v4.551H1.517V1.517zM26.423 37.038l-3.941-6.826a.758.758 0 0 0-1.036-.278l-1.271.734v-8.421l7.293 4.211-1.271.734a.758.758 0 0 0-.278 1.036l3.941 6.826zm2.993-5.79l-1.8-3.123 1.751-1.011a.758.758 0 0 0 0-1.314l-.811-.468h4.516a.758.758 0 0 0 .758-.758V14.259a.758.758 0 0 0-.758-.758H22.829a.758.758 0 0 0 0 1.517h9.481v8.8h-6.385L19.8 20.276a.758.758 0 0 0-1.138.657v2.882H6.523v-8.8H16a.758.758 0 0 0 0-1.515H5.764a.758.758 0 0 0-.758.758v10.316a.758.758 0 0 0 .758.758h12.894v5.916H1.517V7.585h35.8v23.663z"/>
        <path d="M54.758 41.517a.759.759 0 1 0-.536-.222.764.764 0 0 0 .536.222z" transform="translate(-49.904 -36.966)"/>
        <path d="M102.758 41.517a.759.759 0 1 0-.536-.222.764.764 0 0 0 .536.222z" transform="translate(-94.264 -36.966)"/>
        <path d="M150.758 41.517a.759.759 0 1 0-.536-.222.764.764 0 0 0 .536.222z" transform="translate(-138.623 -36.966)"/>
        <path d="M246.758 41.517h14.524a.758.758 0 1 0 0-1.517h-14.524a.758.758 0 1 0 0 1.517z" transform="translate(-227.342 -36.966)"/>
        <path d="M246.758 178a.759.759 0 1 0 .536.222.764.764 0 0 0-.536-.222z" transform="translate(-227.342 -164.5)"/>
    </g>
</svg>
