<svg xmlns="http://www.w3.org/2000/svg" width="38.832" height="38.832" viewBox="0 0 38.832 38.832">
    <defs>
        <style>
            .cls-1{fill:#ccd1d9}.cls-2{fill:#e6e9ed}.cls-3{fill:#f0d0b4}.cls-5{fill:#ff826e}.cls-7{fill:#fcd770}
        </style>
    </defs>
    <g id="form16">
        <path id="Path_110" d="M304.142 362.21v5.011H296V364.3a1.645 1.645 0 0 0 .5-.808l.67-2.449a8.387 8.387 0 0 1 1.6.37l1.058.35a8.7 8.7 0 0 0 2.774.451 8.084 8.084 0 0 0 1.51-.138zm0 0" class="cls-1" transform="translate(-272.826 -332.773)"/>
        <path id="Path_111" d="M324.155 288.37a1.253 1.253 0 0 1-.889 2.136H322l.676-2.505h.589a1.251 1.251 0 0 1 .89.369zm0 0" class="cls-1" transform="translate(-296.791 -265.453)"/>
        <path id="Path_112" d="M230.689 288.037l-.664 2.468h-1.985a2.522 2.522 0 0 0-1.773.733l-.106-.106 2.4-2.4a2.508 2.508 0 0 1 1.773-.733h.213zm0 0" class="cls-2" transform="translate(-208.454 -265.452)"/>
        <path id="Path_113" d="M194.654 248.094l-.833 3.075-.144-.038h-.213a2.508 2.508 0 0 0-1.773.733l-2.4 2.4-.858.864a1.328 1.328 0 0 1-.939.388 1.351 1.351 0 0 1-.946-.388 1.323 1.323 0 0 1 .006-1.879l4.51-4.516a2.508 2.508 0 0 1 1.773-.733h1.463zm0 0" class="cls-3" transform="translate(-171.586 -228.584)"/>
        <path id="Path_114" d="M126.406 26.164V11.758H112V8h22.548v20.669l-.044.063-2.286-1.522a2.485 2.485 0 0 0-1.39-.42h-.864l1.209-4.466.67-2.493.939-3.476a1.7 1.7 0 0 0 .056-.432 1.657 1.657 0 0 0-1.654-1.66h-.207a1.654 1.654 0 0 0-1.6 1.228l-.871 3.232-.676 2.486-1.347 4.979zm0 0" class="cls-1" transform="translate(-103.231 -7.374)"/>
        <path id="Path_115" d="M30.548 70.406l.081.025-.188.7-.351-.094h-1.465a2.508 2.508 0 0 0-1.773.733l-4.51 4.516a1.323 1.323 0 0 0-.006 1.879 1.351 1.351 0 0 0 .946.388 1.328 1.328 0 0 0 .939-.388l.858-.864.106.106a2.522 2.522 0 0 0-.733 1.773.628.628 0 0 0 .626.626H28.1l-.451 1.666a1.714 1.714 0 0 0-.063.432 1.663 1.663 0 0 0 1.66 1.66h.207a1.647 1.647 0 0 0 1.1-.42v6.683H8V56h22.548zm0 0" class="cls-2" transform="translate(-7.373 -51.616)"/>
        <path id="Path_116" fill="#b4dd7f" d="M40 88h15.032v5.011H40zm0 0" transform="translate(-36.868 -81.111)"/>
        <path id="Path_117" d="M44.384 352h1.879v6.263H40V352zm0 0" class="cls-5" transform="translate(-36.868 -324.442)"/>
        <path id="Path_118" d="M44.384 216h1.879v6.263H40V216zm0 0" class="cls-5" transform="translate(-36.868 -199.089)"/>
        <path id="Path_119" fill="#ffeaa7" d="M327.207 89.659a1.7 1.7 0 0 1-.056.432l-.94 3.476-3.332-1.109.871-3.232a1.654 1.654 0 0 1 1.6-1.228h.207a1.657 1.657 0 0 1 1.654 1.66zm0 0" transform="translate(-297.6 -81.11)"/>
        <path id="Path_120" d="M318.247 146.069l-.67 2.493-3.338-1.115.676-2.486zm0 0" class="cls-2" transform="translate(-289.636 -133.612)"/>
        <path id="Path_121" d="M261.123 363.339a1.647 1.647 0 0 1-1.1.42h-.207a1.663 1.663 0 0 1-1.66-1.66 1.715 1.715 0 0 1 .063-.432l.451-1.666h2.449a8.134 8.134 0 0 1 1.171.081l-.67 2.449a1.644 1.644 0 0 1-.497.808zm0 0" class="cls-7" transform="translate(-237.948 -331.816)"/>
        <path id="Path_122" d="M280.68 182.3l-1.522 5.637h-3.639l.664-2.468.833-3.075.188-.7 1.347-4.979 3.338 1.115zm0 0" class="cls-7" transform="translate(-253.948 -162.883)"/>
        <path id="Path_123" d="M225.426 256.85a8.139 8.139 0 0 0-1.171-.081h-5.468a.628.628 0 0 1-.626-.626 2.5 2.5 0 0 1 2.505-2.505h6.89a1.253 1.253 0 1 0 0-2.505h-.589l.846-3.132h.864a2.485 2.485 0 0 1 1.39.42l2.286 1.522 2.092 1.4a2.486 2.486 0 0 0 1.391.42h4.077v5.011h-1.879a8.7 8.7 0 0 0-2.129.263l-2.912.727c-.207.05-.413.094-.62.125a8.084 8.084 0 0 1-1.51.138 8.7 8.7 0 0 1-2.774-.451l-1.058-.35a8.386 8.386 0 0 0-1.605-.376zm0 0" class="cls-3" transform="translate(-201.08 -228.584)"/>
        <path id="Path_124" d="M27.6 20.042a1.872 1.872 0 0 1 1.042.316l4.374 2.916a3.128 3.128 0 0 0 1.737.526h4.081v-1.252h-4.08a1.874 1.874 0 0 1-1.043-.316l-1.767-1.178V0H8.142v3.758H0v35.074h23.8v-3.758h8.142V29.8c.039-.009.08-.013.12-.023l2.913-.728a8.191 8.191 0 0 1 1.978-.243h1.879v-1.248h-1.878a9.42 9.42 0 0 0-2.281.281l-2.914.728a8.188 8.188 0 0 1-4.555-.175l-1.055-.352a9.385 9.385 0 0 0-2.974-.482h-5.466a1.881 1.881 0 0 1 1.879-1.879h6.89a1.874 1.874 0 0 0 .22-3.736l.514-1.9zm-.791 9.538a9.376 9.376 0 0 0 2.974.483c.3 0 .607-.026.909-.056v3.814H23.8v-2.048a2.259 2.259 0 0 0 .482-.893l.513-1.9a8.083 8.083 0 0 1 .957.249zm-3.267-.755l-.467 1.727a1.034 1.034 0 0 1-1 .764h-.2a1.032 1.032 0 0 1-1-1.3l.325-1.2h1.972c.122 0 .244.009.366.014zm-3.642-.014l-.237.876a2.27 2.27 0 0 0 1.076 2.57l-.2.785 1.215.3.195-.778h.12a2.275 2.275 0 0 0 .472-.055v5.071H1.253V5.01H9.4V1.253h21.3v18.966l-1.355-.9a3.127 3.127 0 0 0-1.745-.529h-.05l2.607-9.645a2.286 2.286 0 0 0-2.206-2.882h-.2a2.289 2.289 0 0 0-2.206 1.689L23.8 14.395V3.758H10.648v1.253h11.9V18.79h-1.3a3.1 3.1 0 0 0-1.861.626h-6.234v1.253h4.923l-1.253 1.253h-3.67v1.253h2.418l-1.047 1.047a1.944 1.944 0 0 0 1.942 3.247c0 .031-.009.06-.009.091a1.254 1.254 0 0 0 1.253 1.253zm4.825-4.384h-2.338l2.645-9.786 2.148.716zm-4.805-3.834a1.867 1.867 0 0 1 1.329-.55h1.021l-.511 1.89a3.1 3.1 0 0 0-2.1.906L16.4 26.1a.7.7 0 0 1-1.2-.5.7.7 0 0 1 .206-.5zm.626 3.132a1.859 1.859 0 0 1 .86-.484l-.321 1.187h-1.237zm8.4-14.906l-.767 2.838-2.148-.716.719-2.66a1.035 1.035 0 0 1 1-.764h.2a1.033 1.033 0 0 1 1 1.3zM25.7 12.151l2.148.716-.346 1.278-2.148-.716zm.773 11.023a.626.626 0 1 1 0 1.253h-.451l.339-1.253zm0 0"/>
        <path id="Path_125" d="M48.285 80H32v6.263h16.285zm-1.253 5.011H33.253v-3.758h13.779zm0 0" transform="translate(-29.495 -73.737)"/>
        <path id="Path_126" d="M64 112h1.253v1.253H64zm0 0" transform="translate(-58.989 -103.232)"/>
        <path id="Path_127" d="M96 112h1.253v1.253H96zm0 0" transform="translate(-88.484 -103.232)"/>
        <path id="Path_128" d="M128 112h1.253v1.253H128zm0 0" transform="translate(-117.979 -103.232)"/>
        <path id="Path_129" d="M160 112h1.253v1.253H160zm0 0" transform="translate(-147.473 -103.232)"/>
        <path id="Path_130" d="M192 112h1.253v1.253H192zm0 0" transform="translate(-176.968 -103.232)"/>
        <path id="Path_131" d="M39.516 211.758h-1.253v2.505h-5.01v-5.011h3.758V208H32v7.516h7.516zm0 0" transform="translate(-29.495 -191.716)"/>
        <path id="Path_132" d="M65.86 178.344l-5.82 5.82-.81-.81-.886.886 1.7 1.7 6.706-6.706zm0 0" transform="translate(-53.776 -164.381)"/>
        <path id="Path_133" d="M38.263 350.263h-5.01v-5.011h3.758V344H32v7.516h7.516v-3.758h-1.253zm0 0" transform="translate(-29.495 -317.068)"/>
        <path id="Path_134" d="M59.229 319.355l-.886.886 1.7 1.7 6.706-6.706-.886-.886-5.82 5.82zm0 0" transform="translate(-53.776 -289.734)"/>
        <path id="Path_135" d="M256 440h1.253v1.253H256zm0 0" transform="translate(-235.957 -405.552)"/>
        <path id="Path_136" d="M152 440h6.89v1.253H152zm0 0" transform="translate(-140.1 -405.552)"/>
        <path id="Path_137" d="M168 216h8.142v1.253H168zm0 0" transform="translate(-154.847 -199.089)"/>
    </g>
</svg>
