<svg xmlns="http://www.w3.org/2000/svg" width="89.007" height="89.006" viewBox="0 0 89.007 89.006">
    <defs>
        <style>
            .cls-1{fill:#dedede;fill-rule:evenodd}
        </style>
    </defs>
    <g id="Layer_x0020_1">
        <path id="Path_171" d="M1900.664 524.29a1.855 1.855 0 0 0-1.854 1.854v14.834a1.854 1.854 0 1 0 3.709 0v-14.834a1.855 1.855 0 0 0-1.855-1.854z" class="cls-1" transform="translate(-1876.559 -524.29)"/>
        <path id="Path_172" d="M2593.395 524.29a1.855 1.855 0 0 0-1.854 1.854v14.834a1.854 1.854 0 1 0 3.708 0v-14.834a1.855 1.855 0 0 0-1.854-1.854z" class="cls-1" transform="translate(-2528.495 -524.29)"/>
        <path id="Path_173" d="M1597 650.24h-5.563v9.271a5.563 5.563 0 1 1-11.125 0v-9.271h-29.668v9.271a5.563 5.563 0 1 1-11.125 0v-9.271h-5.563a12.994 12.994 0 0 0-12.98 12.98v5.563h89.006v-5.563a12.994 12.994 0 0 0-12.98-12.98z" class="cls-1" transform="translate(-1520.979 -642.823)"/>
        <path id="Path_174" d="M1520.96 1028.1v46.357a12.994 12.994 0 0 0 12.98 12.98h63.046a12.994 12.994 0 0 0 12.98-12.98V1028.1h-89.006z" class="cls-1" transform="translate(-1520.96 -998.431)"/>
    </g>
</svg>
