<svg xmlns="http://www.w3.org/2000/svg" id="payslip" width="38.833" height="38.833" viewBox="0 0 38.833 38.833">
    <defs>
        <style>
            .cls-2{fill:#fea82f}.cls-4{fill:#ff8031}.cls-5{fill:#92e0c0}
        </style>
    </defs>
    <path id="Path_5" fill="#ececec" d="M58.932 42.448h-23.8V10.505A2.505 2.505 0 0 0 32.626 8h23.8a2.505 2.505 0 0 1 2.505 2.505z" transform="translate(-29.495 -7.374)"/>
    <g id="Group_8" transform="translate(.626 .626)">
        <path id="Path_6" d="M72 389.011h26.306a2.505 2.505 0 0 0 2.505-2.505V384h-23.8v2.505a2.505 2.505 0 0 1-2.505 2.505z" class="cls-2" transform="translate(-66.989 -354.562)"/>
        <path id="Path_7" d="M13.011 15.516H8v-5.011A2.505 2.505 0 0 1 10.505 8a2.505 2.505 0 0 1 2.505 2.505z" class="cls-2" transform="translate(-8 -8)"/>
    </g>
    <path id="Path_8" fill="#b6c1ce" d="M324.384 155.672a6.265 6.265 0 0 0 0 11.952z" transform="translate(-294.947 -143.484)"/>
    <ellipse id="Ellipse_1" cx="6.5" cy="6" class="cls-2" rx="6.5" ry="6" transform="translate(25.833 9.833)"/>
    <path id="Path_9" d="M334.263 205.637a6.264 6.264 0 0 1-6.232-5.637c-.02.206-.031.415-.031.626a6.263 6.263 0 1 0 12.527 0c0-.212-.011-.42-.031-.626a6.264 6.264 0 0 1-6.233 5.637z" class="cls-4" transform="translate(-302.32 -184.342)"/>
    <g id="Group_9" transform="translate(.928 3.158)">
        <path id="Rectangle_29" d="M0 0H7V6H0z" class="cls-5" transform="translate(-.096 29.675)"/>
        <path id="Rectangle_30" d="M0 0H18V7H0z" class="cls-5" transform="translate(7.904 -.325)"/>
    </g>
    <path id="Rectangle_31" d="M0 0H5V1H0z" class="cls-4" transform="translate(.833 6.833)"/>
    <path id="Rectangle_32" fill="#48c397" d="M0 0H7V2H0z" transform="translate(.833 36.833)"/>
    <path id="Path_10" fill="#f9e0a6" d="M32.626 173.3l-.607-4.856a2.448 2.448 0 0 1-.019-.311V162.8a2.449 2.449 0 0 1 .019-.311l.522-4.172a1.662 1.662 0 0 1 .509-1.088l3.582-4.607a1.09 1.09 0 0 1 1-.626 1.262 1.262 0 0 1 1.262 1.262v.213a1.262 1.262 0 0 1-.235.733l-2.43 3.4a2.5 2.5 0 0 0-.467 1.456v3.616a2.513 2.513 0 0 0 .264 1.121l.988 1.976 2.743-2.743a1.328 1.328 0 0 1 .94-.389 1.329 1.329 0 0 1 1.328 1.328 1.328 1.328 0 0 1-.389.94l-4.622 4.622v3.769z" transform="translate(-29.495 -140.1)"/>
    <path id="Path_11" d="M104 40.142h18.79V32H104zm1.253-6.89h16.285v5.638h-16.285z" transform="translate(-95.858 -29.495)"/>
    <path id="Rectangle_33" d="M0 0H14V1H0z" transform="translate(10.833 19.833)"/>
    <path id="Rectangle_34" d="M0 0H4V2H0z" transform="translate(12.833 13.833)"/>
    <path id="Rectangle_35" d="M0 0H3V2H0z" transform="translate(18.833 13.833)"/>
    <path id="Rectangle_36" d="M0 0H4V2H0z" transform="translate(12.833 16.833)"/>
    <path id="Rectangle_37" d="M0 0H3V2H0z" transform="translate(18.833 16.833)"/>
    <path id="Rectangle_38" d="M0 0H10V1H0z" transform="translate(16.833 24.833)"/>
    <path id="Rectangle_39" d="M0 0H4V1H0z" transform="translate(22.833 26.833)"/>
    <path id="Rectangle_40" d="M0 0H4V1H0z" transform="translate(16.833 26.833)"/>
    <path id="Path_12" d="M385.879 154.505a.627.627 0 0 1 .626.626h1.253a1.876 1.876 0 0 0-1.253-1.764V152h-1.253v1.368a1.874 1.874 0 0 0 .626 3.643.626.626 0 1 1-.626.626H384a1.876 1.876 0 0 0 1.253 1.764v1.368h1.253V159.4a1.874 1.874 0 0 0-.626-3.643.626.626 0 0 1 0-1.253z" transform="translate(-353.936 -140.1)"/>
    <path id="Rectangle_41" d="M0 0H1V1H0z" transform="translate(35.833 15.833)"/>
    <path id="Rectangle_42" d="M0 0H1V1H0z" transform="translate(27.833 15.833)"/>
    <path id="Path_13" d="M37.706 20.062a6.88 6.88 0 0 0-7.642-10.4v-6.53A3.135 3.135 0 0 0 26.932 0h-23.8A3.135 3.135 0 0 0 0 3.132v5.637h5.011v4.667L2.474 16.7a2.314 2.314 0 0 0-.674 1.443l-.521 4.173a3.224 3.224 0 0 0-.024.388v5.325a3.216 3.216 0 0 0 .024.388l.521 4.152H0v6.263h8.769V35.7h23.174a3.135 3.135 0 0 0 3.132-3.132v-3.13h-5.011v-6.53a6.854 6.854 0 0 0 6.758-1.759l-.887-.884a5.626 5.626 0 1 1 .723-.89zM1.253 7.516V3.132a1.879 1.879 0 1 1 3.758 0v4.384zM2.52 28.263a1.949 1.949 0 0 1-.014-.234V22.7a1.931 1.931 0 0 1 .014-.233l.521-4.167a1.1 1.1 0 0 1 .274-.673l3.691-4.714.058-.09a.466.466 0 0 1 .443-.3.636.636 0 0 1 .636.636v.213a.634.634 0 0 1-.118.37l-2.43 3.4a3.108 3.108 0 0 0-.584 1.819v3.616a3.161 3.161 0 0 0 .33 1.4l.536 1.07h-.24V26.3h1.512l2.926-2.926a.7.7 0 0 1 1.2.5.7.7 0 0 1-.205.5l-4.807 4.804v3.391h-3.2zm5 9.317H1.253v-3.758h6.263zm26.306-5.011a1.881 1.881 0 0 1-1.879 1.879h-21.3a3.115 3.115 0 0 0 .628-1.879V30.69h22.547zm-8.773-16.284a6.893 6.893 0 0 0 3.758 6.129v7.024h-18.79v3.132a1.876 1.876 0 0 1-1.253 1.764v-1.765H7.516V29.7l4.438-4.438a1.955 1.955 0 0 0-1.382-3.337 1.968 1.968 0 0 0-1.382.572l-2.129 2.125-.6-1.2a1.893 1.893 0 0 1-.2-.841v-3.614a1.869 1.869 0 0 1 .35-1.092l2.43-3.4a1.875 1.875 0 0 0 .351-1.1v-.213a1.891 1.891 0 0 0-1.888-1.888 1.679 1.679 0 0 0-1.243.535V3.132a3.1 3.1 0 0 0-.643-1.879h21.314a1.881 1.881 0 0 1 1.879 1.879v7.024a6.893 6.893 0 0 0-3.758 6.129z"/>
</svg>
