<svg xmlns="http://www.w3.org/2000/svg" width="43.055" height="38.513" viewBox="0 0 43.055 38.513">
    <g>
        <path fill="#ffc66c" d="M44.814 26.646h4.036a2.523 2.523 0 0 0 2.523-2.523v-11.1A2.523 2.523 0 0 0 48.85 10.5H12.523A2.523 2.523 0 0 0 10 13.023v11.1a2.523 2.523 0 0 0 2.523 2.523zm0 0" transform="translate(0 -.5) translate(-9.159 -9.159)"/>
        <path fill="#ff5d5d" d="M378.094 327.437l6.987 6.987a2.01 2.01 0 0 0 2.843-2.843l-6.987-6.987zm0 0" transform="translate(0 -.5) translate(-346.3 -296.84)"/>
        <path fill="#fff" d="M210.186 146.591A10.091 10.091 0 1 1 200.1 136.5a10.091 10.091 0 0 1 10.086 10.091zm0 0" transform="translate(0 -.5) translate(-174.027 -124.564)"/>
        <path fill="#72d8ff" d="M245.122 185.059a6.559 6.559 0 1 1-6.559-6.559 6.559 6.559 0 0 1 6.559 6.559zm0 0" transform="translate(0 -.5) translate(-212.495 -163.032)"/>
        <path d="M229.4 168.5a7.4 7.4 0 1 0 7.4 7.4 7.408 7.408 0 0 0-7.4-7.4zm0 13.118a5.718 5.718 0 1 1 5.718-5.718 5.725 5.725 0 0 1-5.718 5.718zm0 0" transform="translate(0 -.5) translate(-203.336 -153.873)"/>
        <path d="M300.845 211.5a.841.841 0 0 0 0 1.682 2.1 2.1 0 0 1 2.1 2.1.841.841 0 1 0 1.682 0 3.788 3.788 0 0 0-3.782-3.782zm0 0" transform="translate(0 -.5) translate(-274.776 -193.26)"/>
        <path d="M44.349 70.951a.841.841 0 1 0-1.494.773l2.264 4.376a.841.841 0 0 0 1.5-.023l1.37-2.853 1.494 2.876a.842.842 0 0 0 .747.454h.012a.842.842 0 0 0 .746-.477l2.1-4.373a.841.841 0 1 0-1.516-.728L50.2 73.827l-1.489-2.876a.841.841 0 0 0-1.5.023l-1.37 2.853zm0 0" transform="translate(0 -.5) translate(-39.166 -64.11)"/>
        <path d="M116.829 2.182a.842.842 0 1 0-.594-.246.847.847 0 0 0 .594.246zm0 0" transform="translate(0 -.5) translate(-106.235)"/>
        <path d="M43.055 14.964v-11.1A3.368 3.368 0 0 0 39.691.5H14.126a.841.841 0 0 0 0 1.682h25.565a1.684 1.684 0 0 1 1.682 1.682v11.1a1.684 1.684 0 0 1-1.682 1.682h-4.108a10.99 10.99 0 0 0-5.911-4.943l1.247-2.6 1.489 2.876a.84.84 0 0 0 .747.454h.013a.841.841 0 0 0 .745-.477l2.1-4.373a.841.841 0 0 0-1.513-.72l-1.37 2.853-1.493-2.875a.841.841 0 0 0-1.5.023l-1.37 2.853-1.493-2.876a.841.841 0 0 0-1.494.773l1.861 3.6a10.949 10.949 0 0 0-4.555.3l1.882-3.918a.841.841 0 0 0-1.516-.728l-1.37 2.853-1.49-2.88a.841.841 0 0 0-1.5.023l-1.37 2.853-1.493-2.876a.841.841 0 0 0-1.494.773L17 11.987a.841.841 0 0 0 1.5-.023l1.37-2.853 1.488 2.876a.821.821 0 0 0 .089.134 11.005 11.005 0 0 0-4.895 4.525H3.363a1.684 1.684 0 0 1-1.682-1.682v-11.1a1.684 1.684 0 0 1 1.682-1.682H6.81A.841.841 0 1 0 6.81.5H3.363A3.368 3.368 0 0 0 0 3.864v11.1a3.367 3.367 0 0 0 3.364 3.364h12.418A10.929 10.929 0 0 0 31.513 31.5l6.674 6.674a2.852 2.852 0 0 0 4.032-4.033L39.6 31.524a.841.841 0 1 0-1.189 1.189l2.622 2.623a1.17 1.17 0 0 1-1.654 1.654l-6.453-6.453a10.922 10.922 0 0 0 3.432-12.209h3.336a3.367 3.367 0 0 0 3.364-3.364zM26.068 31.278a9.25 9.25 0 1 1 9.25-9.25 9.261 9.261 0 0 1-9.25 9.25zm0 0" transform="translate(0 -.5)"/>
        <path d="M430.337 343.028a.841.841 0 1 0 .595-.246.847.847 0 0 0-.595.246zm0 0" transform="translate(0 -.5) translate(-393.924 -313.498)"/>
    </g>
</svg>
