<svg xmlns="http://www.w3.org/2000/svg" width="38.833" height="38.839" viewBox="0 0 38.833 38.839">
    <g transform="translate(-2.009 -2)">
        <path fill="#fee9ab" d="M47.6 10.12v29.13a1.3 1.3 0 0 1-1.3 1.294H24.295A1.3 1.3 0 0 1 23 39.25V4.295A1.3 1.3 0 0 1 24.295 3h16.183v5.826a1.3 1.3 0 0 0 1.295 1.295z" transform="translate(-7.403 -.353)"/>
        <path fill="#ffd422" d="M58.884 14v29.129a1.3 1.3 0 0 1-1.295 1.295H55a1.3 1.3 0 0 0 1.295-1.295V14z" transform="translate(-18.689 -4.232)"/>
        <path fill="#ff7956" d="M57.12 10.12h-5.825A1.3 1.3 0 0 1 50 8.826V3z" transform="translate(-16.926 -.353)"/>
        <circle cx="5" cy="5" r="5" fill="#bdfdff" transform="translate(26.842 26.833)"/>
        <path fill="#ff3051" d="M39.946 20.946H27V8a12.942 12.942 0 0 1 12.946 12.946z" transform="translate(-8.814 -2.116)"/>
        <path fill="#46f8ff" d="M53.473 46.179a5.179 5.179 0 0 1-5.179 5.179A5.333 5.333 0 0 1 47 51.2a5.182 5.182 0 0 0 0-10.033A5.333 5.333 0 0 1 48.295 41a5.179 5.179 0 0 1 5.178 5.179z" transform="translate(-15.868 -13.755)"/>
        <path fill="#cd2a00" d="M39.945 20.946h-2.589A12.947 12.947 0 0 0 27 8.258V8a12.942 12.942 0 0 1 12.945 12.946z" transform="translate(-8.813 -2.116)"/>
        <path fill="#5eac24" d="M18.013 32h12.946a12.946 12.946 0 0 1-22.1 9.153z" transform="translate(-2.416 -10.58)"/>
        <path fill="#ffcd00" d="M15.948 12v12.946L6.795 34.1A12.946 12.946 0 0 1 15.948 12z" transform="translate(-.351 -3.527)"/>
        <path d="M40.654 9.308l-7.12-7.12a.669.669 0 0 0-.46-.188H16.891a1.948 1.948 0 0 0-1.942 1.942v3.916a13.576 13.576 0 0 0 0 27.123V38.9a1.948 1.948 0 0 0 1.942 1.942H38.9a1.948 1.948 0 0 0 1.942-1.942V9.768a.669.669 0 0 0-.188-.46zm-6.933-5.1l4.914 4.912h-4.266a.647.647 0 0 1-.647-.647zM3.3 21.42A12.314 12.314 0 0 1 14.949 9.14v12.014l-8.48 8.48A12.221 12.221 0 0 1 3.3 21.42zm4.085 9.127l8.48-8.48h12.011a12.275 12.275 0 0 1-20.494 8.48zM39.548 38.9a.647.647 0 0 1-.647.647h-22.01a.647.647 0 0 1-.647-.647v-3.919A13.6 13.6 0 0 0 29.19 21.42a.647.647 0 0 0-.647-.647h-12.3V3.942a.647.647 0 0 1 .647-.647h15.537v5.178a1.948 1.948 0 0 0 1.942 1.942h5.179z"/>
        <path d="M26.647 7a.647.647 0 0 0-.647.647v12.947a.647.647 0 0 0 .647.647h12.947a.647.647 0 0 0 .647-.647A13.609 13.609 0 0 0 26.647 7zm.647 12.946V8.314a12.31 12.31 0 0 1 11.633 11.632z" transform="translate(-8.461 -1.763)"/>
        <path d="M45.826 40a5.826 5.826 0 1 0 5.826 5.826A5.826 5.826 0 0 0 45.826 40zm0 10.357a4.531 4.531 0 1 1 4.531-4.531 4.531 4.531 0 0 1-4.531 4.531z" transform="translate(-13.399 -13.402)"/>
        <path d="M45.693 48.719l-1.484-1.484-.915.915 1.942 1.942a.647.647 0 0 0 .915 0l3.884-3.884-.915-.915z" transform="translate(-14.56 -15.269)"/>
        <path d="M50 19h5.179v1.295H50z" transform="translate(-16.926 -5.996)"/>
        <path d="M50 25h5.179v1.295H50z" transform="translate(-16.926 -8.112)"/>
        <path d="M50 31h5.179v1.295H50z" transform="translate(-16.926 -10.228)"/>
    </g>
</svg>
