<svg xmlns="http://www.w3.org/2000/svg" width="44" height="27.013" viewBox="0 0 44 27.013">
    <g>
        <path fill="#78c2a4" d="M50.211 141.164a.987.987 0 0 1-.986.986H8.486a.987.987 0 0 1-.986-.986v-21.388a.986.986 0 0 1 .986-.986h40.738a.987.987 0 0 1 .986.986v21.388z" transform="translate(0 -98.833) translate(-6.855 -18.242)"/>
        <path fill="#66b394" d="M472.616 118.789H470.7a.987.987 0 0 1 .986.986v21.388a.986.986 0 0 1-.986.986h1.918a.987.987 0 0 0 .987-.986v-21.387a.987.987 0 0 0-.989-.987z" transform="translate(0 -98.833) translate(-430.247 -18.241)"/>
        <path fill="#e0f8c5" d="M78.131 165.784v-8.994a4.286 4.286 0 0 1-4.286-4.286H45.5a4.286 4.286 0 0 1-4.286 4.286v8.993a4.286 4.286 0 0 1 4.286 4.287h28.345a4.286 4.286 0 0 1 4.286-4.286z" transform="translate(0 -98.833) translate(-37.673 -49.059)"/>
        <path fill="#ccf49f" d="M393.014 152.5h-2.623a4.288 4.288 0 0 0 2.881 4.051 2.091 2.091 0 0 1 1.406 1.975v5.516a2.09 2.09 0 0 1-1.406 1.975 4.288 4.288 0 0 0-2.881 4.051h2.623a4.286 4.286 0 0 1 4.286-4.286v-8.992a4.286 4.286 0 0 1-4.286-4.29z" transform="translate(0 -98.833) translate(-356.842 -49.059)"/>
        <path fill="#f6e266" d="M82.863 132.057h-8.485a.756.756 0 0 1-.756-.756v-24.212a.756.756 0 0 1 .756-.756h8.485a.756.756 0 0 1 .756.756V131.3a.756.756 0 0 1-.756.756z" transform="translate(0 -98.833) translate(-67.295 -6.855)"/>
        <path fill="#ecbe6b" d="M163.715 106.333h-1.64a.756.756 0 0 1 .756.756V131.3a.756.756 0 0 1-.756.756h1.64a.756.756 0 0 0 .756-.756v-24.211a.756.756 0 0 0-.756-.756z" transform="translate(0 -98.833) translate(-148.147 -6.855)"/>
        <g>
            <path d="M226.427 190.7c-.157-.056-.317-.113-.477-.174V187.8a4.25 4.25 0 0 1 1.288.349.645.645 0 0 0 .576-1.153 5.457 5.457 0 0 0-1.864-.489v-.471a.645.645 0 0 0-1.289 0v.563c-.074.017-.148.036-.223.059a2.443 2.443 0 0 0-1.674 1.916 2.157 2.157 0 0 0 .709 2.125 5.634 5.634 0 0 0 1.188.685v3.406a2.33 2.33 0 0 1-1.187-.464.645.645 0 0 0-.706 1.079 3.566 3.566 0 0 0 1.892.678v.577a.645.645 0 0 0 1.289 0v-.631a2.928 2.928 0 0 0 2.249-2.39 2.574 2.574 0 0 0-1.771-2.939zm-2.159-1.008a.9.9 0 0 1-.237-.872 1.2 1.2 0 0 1 .63-.862v1.992a3.232 3.232 0 0 1-.393-.262zm2.659 3.741a1.669 1.669 0 0 1-.978 1.255v-2.789l.048.017a1.309 1.309 0 0 1 .931 1.512z" transform="translate(0 -98.833) translate(0 98.833) translate(-203.358 -177.956)"/>
            <path d="M345.527 247.205h-2.007a.645.645 0 0 0 0 1.289h2.007a.645.645 0 0 0 0-1.289z" transform="translate(0 -98.833) translate(0 98.833) translate(-313.41 -234.454)"/>
            <path d="M458.546 152.508a.644.644 0 0 0-.645.645v.193a.645.645 0 0 0 1.289 0v-.193a.644.644 0 0 0-.644-.645z" transform="translate(0 -98.833) translate(0 98.833) translate(-418.55 -147.895)"/>
            <path d="M458.546 339.655a.644.644 0 0 0-.645.645v.193a.645.645 0 0 0 1.289 0v-.193a.644.644 0 0 0-.644-.645z" transform="translate(0 -98.833) translate(0 98.833) translate(-418.55 -318.959)"/>
            <path d="M39.744 153.99a.644.644 0 0 0 .645-.645v-.193a.645.645 0 0 0-1.289 0v.193a.644.644 0 0 0 .644.645z" transform="translate(0 -98.833) translate(0 98.833) translate(-35.739 -147.895)"/>
            <path d="M40.388 340.493v-.193a.645.645 0 1 0-1.289 0v.193a.645.645 0 0 0 1.289 0z" transform="translate(0 -98.833) translate(0 98.833) translate(-35.739 -318.959)"/>
            <path d="M98.039 235.243l.015.006 4.526 1.724a.645.645 0 0 0 .459-1.2l-.712-.271v-1.88l.71-.268a.644.644 0 1 0-.455-1.206l-4.527 1.708-.018.007a.749.749 0 0 0 0 1.385zm3-1.14v.9l-1.19-.453z" transform="translate(0 -98.833) translate(0 98.833) translate(-89.189 -220.648)"/>
            <path d="M97.69 159.268a.644.644 0 0 0 .9.156l1.761-1.239 2.088 1.471a.645.645 0 1 0 .742-1.054l-1.71-1.2 1.71-1.2a.644.644 0 1 0-.742-1.054l-2.087 1.469-1.762-1.241a.645.645 0 1 0-.742 1.054l1.384.975-1.384.973a.644.644 0 0 0-.158.89z" transform="translate(0 -98.833) translate(0 98.833) translate(-89.187 -150.194)"/>
            <path d="M102.809 313.743h-3.947v-.628a.645.645 0 0 0-1.289 0v2.535a.645.645 0 0 0 1.289 0v-.618h3.947a.645.645 0 0 0 0-1.289z" transform="translate(0 -98.833) translate(0 98.833) translate(-89.188 -294.111)"/>
            <path d="M42.369 99.9H16.927a1.4 1.4 0 0 0-1.359-1.07H7.083a1.4 1.4 0 0 0-1.36 1.07H1.631A1.633 1.633 0 0 0 0 101.535v16.287a.645.645 0 0 0 1.289 0v-16.287a.342.342 0 0 1 .342-.342h4.051v5.2a3.641 3.641 0 0 1-2.141.7.644.644 0 0 0-.645.645v8.993a.644.644 0 0 0 .645.645 3.64 3.64 0 0 1 2.141.7v5.2H1.631a.342.342 0 0 1-.342-.342V120.4a.645.645 0 0 0-1.289 0v2.524a1.633 1.633 0 0 0 1.631 1.631h4.057a1.4 1.4 0 0 0 1.395 1.293h8.485a1.4 1.4 0 0 0 1.395-1.293h25.406A1.633 1.633 0 0 0 44 122.922v-21.387a1.633 1.633 0 0 0-1.631-1.635zM4.186 116.123v-7.789a4.934 4.934 0 0 0 1.5-.448v8.685a4.934 4.934 0 0 0-1.5-.448zm38.525 6.8a.342.342 0 0 1-.342.342h-25.4v-1.608h19.2a.644.644 0 0 0 .645-.645 3.646 3.646 0 0 1 3.642-3.642.644.644 0 0 0 .645-.645v-8.993a.644.644 0 0 0-.645-.645 3.646 3.646 0 0 1-3.642-3.642.644.644 0 0 0-.645-.645h-2.641a.645.645 0 0 0 0 1.289h2.041a4.941 4.941 0 0 0 4.244 4.244v7.788a4.941 4.941 0 0 0-4.244 4.244h-18.6v-7.619a.645.645 0 0 0-1.289 0v11.7a.111.111 0 0 1-.111.111H7.083a.111.111 0 0 1-.111-.111v-24.213a.111.111 0 0 1 .111-.111h8.485a.111.111 0 0 1 .111.111v9.938a.645.645 0 0 0 1.289 0v-6.081h13.983a.645.645 0 1 0 0-1.289H16.968v-1.608h25.4a.342.342 0 0 1 .342.342v21.388z" transform="translate(0 -98.833) translate(0 98.833) translate(0 -98.833)"/>
        </g>
    </g>
</svg>
