<svg id="Capa_1" enable-background="new 0 0 512 512" height="512" viewBox="0 0 512 512" width="512" xmlns="http://www.w3.org/2000/svg"><g><path d="m396.524 260.116c0-9.029 7.342-16.379 16.379-16.379v-132.241c0-13.682-11.092-24.774-24.774-24.774h-355.129c-13.682 0-24.774 11.092-24.774 24.774v280.871c0 13.682 11.092 24.774 24.774 24.774h355.129c13.682 0 24.774-11.092 24.774-24.774v-115.871c-9.037 0-16.379-7.35-16.379-16.38z" fill="#eceaec"/><path d="m388.129 45.432h-363.355c-2.895 0-5.674.497-8.256 1.409l-8.851 56.301 405.237-8.161v-24.774c-.001-13.684-11.092-24.775-24.775-24.775z" fill="#ffe07d"/><path d="m24.774 408.787c-4.561 0-8.258-3.697-8.258-8.258v-289.033h-16.516v289.032c0 13.682 11.092 24.774 24.774 24.774h363.355c10.771 0 19.844-6.916 23.257-16.516h-386.612z" fill="#dad8db"/><path d="m16.516 78.464v-31.628c-9.584 3.414-16.516 12.612-16.516 23.37v41.29h412.903v-16.516h-379.871c-9.121 0-16.516-7.394-16.516-16.516z" fill="#ffd064"/><path d="m57.806 61.948c-9.122 0-16.516-7.395-16.516-16.516v-16.516c0-9.122 7.395-16.516 16.516-16.516 9.122 0 16.516 7.395 16.516 16.516v16.516c.001 9.121-7.394 16.516-16.516 16.516z" fill="#eceaec"/><path d="m57.806 78.464c-9.122 0-16.516-7.395-16.516-16.516v-16.516h33.032v16.516c.001 9.122-7.394 16.516-16.516 16.516z" fill="#dad8db"/><path d="m355.097 61.948c-9.122 0-16.516-7.395-16.516-16.516v-16.516c0-9.122 7.395-16.516 16.516-16.516 9.122 0 16.516 7.395 16.516 16.516v16.516c0 9.121-7.395 16.516-16.516 16.516z" fill="#eceaec"/><path d="m355.097 78.464c-9.122 0-16.516-7.395-16.516-16.516v-16.516h33.032v16.516c0 9.122-7.395 16.516-16.516 16.516z" fill="#dad8db"/><path d="m404.645 276.633h16.516v33.032h-16.516z" fill="#ffd064"/><circle cx="412.903" cy="466.568" fill="#ffc250" r="33.032"/><path d="m412.903 284.891c-13.661 0-24.774-11.113-24.774-24.774s11.113-24.774 24.774-24.774 24.774 11.113 24.774 24.774-11.112 24.774-24.774 24.774zm0-33.033c-4.556 0-8.258 3.706-8.258 8.258s3.702 8.258 8.258 8.258 8.258-3.706 8.258-8.258-3.701-8.258-8.258-8.258z" fill="#ffe07d"/><path d="m511.774 447.278c-1.321-8.12-8.947-13.742-17.174-13.742-8.633 0-15.632-6.999-15.632-15.632v-50.432c0-36.486-29.578-66.064-66.064-66.064-12.033 0-23.315 3.217-33.033 8.838l-7.871 25.242v110l8.333 14.5h115.151l16.516-9.936c0-.909-.073-1.836-.226-2.774z" fill="#ffe07d"/><path d="m379.871 417.02v-106.774c-19.728 11.428-33.032 32.786-33.032 57.225v50.432c0 8.589-6.917 15.693-15.506 15.633-8.275-.058-15.972 5.579-17.3 13.741-1.683 10.348 6.259 19.29 16.29 19.29h165.161c9.115 0 16.506-7.403 16.516-16.516h-99.097c-18.243.001-33.032-14.788-33.032-33.031z" fill="#ffd064"/><path d="m322 268.117c0 24.539-7.645 47.293-20.684 66.009-20.888 29.983-55.617 44.529-94.929 44.529-63.851 0-108.887-46.686-108.887-110.538 0-39.304 12.887-74.027 42.86-94.916 18.719-13.046 41.48-20.697 66.027-20.697 63.851 0 115.613 51.761 115.613 115.613z" fill="#ffe07d"/><path d="m235.29 354.826c-63.851 0-115.613-51.762-115.613-115.613 0-24.541 7.643-47.296 20.682-66.013-29.981 20.888-49.586 55.606-49.586 94.916 0 63.851 51.762 115.613 115.613 115.613 39.31 0 74.041-19.623 94.929-49.604-18.715 13.04-41.484 20.701-66.025 20.701z" fill="#ffd064"/><circle cx="206.387" cy="268.117" fill="#fff" r="99.097"/><circle cx="206.387" cy="268.117" fill="#eceaec" r="82.581"/><path d="m270.263 238.119-61.642 20.55-48.363-48.359c-3.225-3.224-8.453-3.224-11.677.001-3.225 3.224-3.225 8.453 0 11.677l51.968 51.968c1.573 1.577 3.685 2.419 5.839 2.419.871 0 1.758-.137 2.613-.423l66.486-22.162c4.328-1.443 6.666-6.12 5.223-10.448-1.444-4.327-6.12-6.665-10.447-5.223z" fill="#ffc250"/><circle cx="206.387" cy="268.117" fill="#fff" r="16.516"/></g></svg>