<svg id="Capa_1" enable-background="new 0 0 512 512" height="512" viewBox="0 0 512 512" width="512" xmlns="http://www.w3.org/2000/svg"><g><g><g><g><g><g><g><g><g><path d="m3.96 27.272v457.456c0 15.062 12.21 27.272 27.272 27.272h375.501v-391.726l-120.274-120.274h-255.227c-15.062 0-27.272 12.21-27.272 27.272z" fill="#eaecf0"/><path d="m312.654 26.194v112.841c0 11.389 9.233 20.622 20.622 20.622h19.163v352.343h27.001c15.074 0 27.293-12.22 27.293-27.293v-364.433z" fill="#d3d7de"/><path d="m286.459 0 120.274 120.274h-99.667c-11.38 0-20.606-9.226-20.606-20.606v-99.668z" fill="#df705d"/></g></g><g><path d="m209.611 77.134h-155.688c-4.267 0-7.726-3.459-7.726-7.726 0-4.268 3.459-7.726 7.726-7.726h155.688c4.267 0 7.726 3.459 7.726 7.726s-3.459 7.726-7.726 7.726z" fill="#676e84"/></g><g><path d="m209.611 128h-155.688c-4.267 0-7.726-3.459-7.726-7.726 0-4.268 3.459-7.726 7.726-7.726h155.688c4.267 0 7.726 3.459 7.726 7.726s-3.459 7.726-7.726 7.726z" fill="#676e84"/></g></g></g></g><g><g><path d="m350.59 221.896h-296.667c-4.267 0-7.726-3.459-7.726-7.726s3.459-7.726 7.726-7.726h296.667c4.267 0 7.726 3.459 7.726 7.726s-3.459 7.726-7.726 7.726z" fill="#676e84"/></g><g><path d="m350.59 285.873h-296.667c-4.267 0-7.726-3.459-7.726-7.726s3.459-7.726 7.726-7.726h296.667c4.267 0 7.726 3.459 7.726 7.726s-3.459 7.726-7.726 7.726z" fill="#676e84"/></g><g><path d="m273.525 349.85h-219.602c-4.267 0-7.726-3.459-7.726-7.726s3.459-7.726 7.726-7.726h219.603c4.267 0 7.726 3.459 7.726 7.726s-3.46 7.726-7.727 7.726z" fill="#676e84"/></g><g><path d="m273.525 413.827h-219.602c-4.267 0-7.726-3.459-7.726-7.726 0-4.268 3.459-7.726 7.726-7.726h219.603c4.267 0 7.726 3.459 7.726 7.726-.001 4.267-3.46 7.726-7.727 7.726z" fill="#676e84"/></g></g></g></g><path d="m450.933 371.189v124.614c0 8.945-7.251 16.197-16.197 16.197h-56.006c-8.945 0-16.197-7.251-16.197-16.197v-124.614h-48.936c-7.265 0-10.903-8.784-5.766-13.921l93.136-93.136c3.185-3.185 8.348-3.185 11.532 0l93.136 93.136c5.137 5.137 1.499 13.921-5.766 13.921z" fill="#759ce7"/><path d="m410.698 349.118h-1.571c-7.276 0-13.175 5.898-13.175 13.175v149.707h38.785c8.945 0 16.197-7.252 16.197-16.197v-124.614h48.936c7.265 0 10.903-8.784 5.766-13.921l-93.136-93.136c-3.185-3.185-8.348-3.185-11.532 0l-21.724 21.724 40.771 40.771c8.298 8.3 2.42 22.491-9.317 22.491z" fill="#5881cc"/></g></g></svg>