<svg id="Capa_1" enable-background="new 0 0 512 512" height="512" viewBox="0 0 512 512" width="512" xmlns="http://www.w3.org/2000/svg"><path d="m98.863 98.011v175.836c0 27.494 22.289 49.783 49.783 49.783h155.996c27.494 0 49.783-22.289 49.783-49.783v-175.836z" fill="#ac5e2e"/><path d="m354.43 97.943v175.948c0 27.507-22.3 49.808-49.822 49.808h-17.771c27.507 0 49.808-22.3 49.808-49.808v-175.948z" fill="#9e5528"/><path d="m344.63 512h-236.133v-111.248c0-47.513 38.517-86.029 86.029-86.029h64.075c47.513 0 86.029 38.517 86.029 86.029z" fill="#8ac9fe"/><path d="m344.628 400.756v111.242h-16.497v-111.242c0-47.522-38.51-86.032-86.032-86.032h16.497c47.522 0 86.032 38.511 86.032 86.032z" fill="#60b7ff"/><path d="m167.259 418.86v93.135h-15.449v-93.135c0-4.264 3.461-7.724 7.724-7.724 4.265 0 7.725 3.46 7.725 7.724z" fill="#4bb1f7"/><path d="m301.313 418.86v93.135h-15.449v-93.135c0-4.264 3.46-7.724 7.724-7.724 4.274 0 7.725 3.46 7.725 7.724z" fill="#4bb1f7"/><path d="m249.76 275.766v47.938c0 2.844-.997 5.598-2.817 7.784l-12.134 14.569c-3.671 6.341-12.816 6.341-16.487 0l-12.141-14.568c-1.822-2.186-2.819-4.941-2.819-7.787v-47.936z" fill="#ea9b58"/><path d="m203.362 275.766h46.398v20.097h-46.398z" fill="#dd8747"/><circle cx="362.246" cy="387.109" fill="#fec165" r="54.383"/><path d="m367.093 358.284 5.795 11.742c.38.77 1.115 1.305 1.966 1.428l12.958 1.883c4.433.644 6.204 6.092 2.996 9.22l-9.377 9.14c-.615.6-.896 1.464-.751 2.311l2.214 12.906c.757 4.416-3.877 7.783-7.843 5.698l-11.59-6.093c-.76-.4-1.669-.4-2.43 0l-11.59 6.093c-3.965 2.085-8.6-1.282-7.843-5.698l2.214-12.906c.145-.847-.135-1.711-.751-2.311l-9.377-9.14c-3.208-3.127-1.438-8.575 2.996-9.22l12.958-1.883c.85-.124 1.585-.658 1.966-1.428l5.795-11.742c1.982-4.017 7.711-4.017 9.694 0z" fill="#fe9901"/><path d="m381.432 391.697c-.62.602-.894 1.459-.748 2.307l2.207 12.912c.757 4.414-3.876 7.779-7.842 5.69l-11.59-6.091c-.757-.401-1.669-.401-2.426 0l-11.59 6.091c-3.967 2.088-8.599-1.277-7.842-5.69l.502-2.945c.264-.082.529-.201.793-.337 1.705-.897 3.409-1.794 5.114-2.692 2.568-1.352 5.139-2.733 7.863-3.75 2.227-.831 4.611-1.157 6.976-1.246 2.554-.096 6.328 1.671 7.91-1.267.487-.904.335-2.167.507-3.149.802-4.564 3.417-8.626 6.774-11.836 2.105-2.006 4.137-4.088 6.22-6.118.219-.219.419-.438.584-.675l2.973.438c4.432.638 6.201 6.092 2.991 9.219z" fill="#fb8801"/><path d="m334.317 154.984h-1.399v-44.581h-212.543v44.581h-1.399c-13.036 0-23.604 10.568-23.604 23.604 0 13.036 10.568 23.604 23.604 23.604h1.399v.756c0 42.368 34.346 76.715 76.715 76.715h59.114c42.368 0 76.715-34.346 76.715-76.715v-.756h1.399c13.036 0 23.604-10.568 23.604-23.604-.001-13.036-10.569-23.604-23.605-23.604z" fill="#f6a96c"/><path d="m357.915 178.587c0 13.032-10.558 23.605-23.605 23.605h-1.395v.75c0 42.382-34.343 76.725-76.71 76.725h-17.203c42.367 0 76.71-34.343 76.71-76.725v-92.547h17.203v44.586h1.395c6.524 0 12.432 2.639 16.692 6.913 4.274 4.275 6.913 10.184 6.913 16.693z" fill="#ea9b58"/><g fill="#5a5a5a"><path d="m226.563 252.682c-10.974 0-20.826-6.531-25.101-16.638-1.707-4.036.181-8.692 4.218-10.4 4.034-1.707 8.693.181 10.4 4.218 1.785 4.221 5.9 6.949 10.484 6.949s8.699-2.728 10.484-6.949c1.708-4.036 6.363-5.925 10.4-4.218 4.036 1.707 5.925 6.363 4.218 10.4-4.276 10.108-14.129 16.638-25.103 16.638z"/><path d="m186.81 201.4c-4.383 0-7.935-3.553-7.935-7.935v-15.751c0-4.383 3.553-7.935 7.935-7.935s7.935 3.553 7.935 7.935v15.751c0 4.382-3.553 7.935-7.935 7.935z"/><path d="m266.317 201.4c-4.383 0-7.935-3.553-7.935-7.935v-15.751c0-4.383 3.552-7.935 7.935-7.935s7.935 3.553 7.935 7.935v15.751c0 4.382-3.552 7.935-7.935 7.935z"/></g><path d="m357.917 100.585v75.18c-7.16.432-14.126.082-20.896-.894-45.685-6.595-82.166-41.781-104.274-58.321-3.626-2.722-8.578-2.722-12.205 0-25.375 18.995-69.714 62.379-125.169 59.03v-74.995c.001-55.547 45.029-100.585 100.587-100.585h61.372c14.763 0 28.775 3.174 41.401 8.886 1.479.678 2.938 1.377 4.387 2.116 3.616 1.859 7.109 3.924 10.458 6.174 1.336.914 2.64 1.849 3.935 2.805 0 .01 0 .01.01 0 1.284.976 2.548 1.962 3.791 2.989 2.486 2.044 4.87 4.212 7.14 6.493 2.846 2.846 5.517 5.856 8.013 9.03.493.627.986 1.264 1.469 1.911.966 1.294 1.901 2.609 2.805 3.945 1.356 2.014 2.64 4.068 3.852 6.174.801 1.407 1.582 2.825 2.322 4.274s1.449 2.918 2.116 4.397c.668 1.49 1.305 2.989 1.911 4.51 4.5 11.424 6.975 23.865 6.975 36.881z" fill="#ac5e2e"/><path d="m357.917 100.585v75.18c-7.16.432-14.126.082-20.896-.894v-63.355c.001-55.547-45.027-111.516-100.574-111.516h20.886c14.763 0 28.775 3.174 41.405 8.888 5.586 2.527 10.961 5.513 15.997 9.015 2.494 1.734 4.903 3.59 7.224 5.556 4.172 3.539 8.07 7.404 11.641 11.55 7.485 8.691 13.106 17.936 17.344 28.696 4.498 11.423 6.973 23.864 6.973 36.88z" fill="#9e5528"/></svg>