<svg xmlns="http://www.w3.org/2000/svg" width="47.013" height="51.448" viewBox="0 0 47.013 51.448">
    <defs>
        <style>
            .cls-1{fill:#a1d51c}.cls-2{fill:#2d72bc}.cls-3{fill:#7ab92d}.cls-4{fill:none}.cls-5{fill:#f9e109}.cls-6{fill:#4891d3}.cls-7{fill:#fcbc04}.cls-9{fill:#c4f236}
        </style>
    </defs>
    <g id="Flat_Icon" transform="translate(-3 -3)">
        <path id="Path_259" d="M47.305 3H34.887a.887.887 0 0 0-.887.887v3.548a4.435 4.435 0 0 0 3.549 4.347V7.435h10.644v4.346A4.435 4.435 0 0 0 47.305 3z" class="cls-1" transform="translate(-3.502)"/>
        <path id="Rectangle_27" d="M0 0H12V14H0z" class="cls-2" transform="translate(33.599 37)"/>
        <path id="Path_260" d="M35.774 57h7.1v3.548H34v-1.774A1.774 1.774 0 0 1 35.774 57z" class="cls-1" transform="translate(-3.502 -6.1)"/>
        <path id="Path_261" d="M0 0h8.87v3.548h-7.1A1.774 1.774 0 0 1 0 1.774z" class="cls-1" transform="rotate(180 24.12 27.224)"/>
        <path id="Path_262" d="M49.305 37.87a1.774 1.774 0 0 1-1.774-1.77v-.887a1.774 1.774 0 0 1 1.774-1.774h.887V29H36v4.435h.887a1.774 1.774 0 0 1 1.774 1.774v.891a1.774 1.774 0 0 1-1.774 1.774H36v2.661h14.193V37.87z" class="cls-1" transform="translate(-3.728 -2.937)"/>
        <path id="Path_263" d="M44.87 37.87a6.209 6.209 0 0 1-6.209-6.209V29H36v4.435h.887a1.774 1.774 0 0 1 1.774 1.774v.891a1.774 1.774 0 0 1-1.774 1.774H36v2.661h14.193V37.87z" class="cls-3" transform="translate(-3.728 -2.937)"/>
        <path id="Path_264" d="M48.774 35h2.661v4.435h-2.661A1.774 1.774 0 0 1 47 37.661v-.887A1.774 1.774 0 0 1 48.774 35z" class="cls-3" transform="translate(-4.971 -3.615)"/>
        <path id="Path_265" d="M50.774 34h4.435v2.661a1.774 1.774 0 0 1-1.774 1.774h-2.661A1.774 1.774 0 0 1 49 36.661v-.887A1.774 1.774 0 0 1 50.774 34z" class="cls-4" transform="translate(-5.197 -3.502)"/>
        <path id="Path_266" d="M1.774 0h2.661a1.774 1.774 0 0 1 1.774 1.774v2.661H1.774A1.774 1.774 0 0 1 0 2.661v-.887A1.774 1.774 0 0 1 1.774 0z" class="cls-4" transform="rotate(180 17.466 17.466)"/>
        <path id="Path_267" d="M50.774 34h4.435v2.661a1.774 1.774 0 0 1-1.774 1.774h-2.661A1.774 1.774 0 0 1 49 36.661v-.887A1.774 1.774 0 0 1 50.774 34z" class="cls-5" transform="translate(-5.197 -3.502)"/>
        <path id="Path_268" d="M1.774 0h2.661a1.774 1.774 0 0 1 1.774 1.774v2.661H1.774A1.774 1.774 0 0 1 0 2.661v-.887A1.774 1.774 0 0 1 1.774 0z" class="cls-5" transform="rotate(180 17.466 17.466)"/>
        <path id="Path_269" d="M47.967 20H37.322A5.322 5.322 0 0 0 32 25.322v7.1h3.548v-4.439h14.193v4.435h3.548v-7.1A5.322 5.322 0 0 0 47.967 20z" class="cls-6" transform="translate(-3.276 -1.92)"/>
        <path id="Path_270" d="M34.59 32.294l.08-7.1A5.322 5.322 0 0 1 39.22 20h-1.9A5.322 5.322 0 0 0 32 25.322v7.1h3.548V32.3z" class="cls-2" transform="translate(-3.276 -1.92)"/>
        <path id="Path_271" d="M50.774 25.887a.887.887 0 1 0-1.774 0v2.661h1.774z" class="cls-7" transform="translate(-5.197 -2.485)"/>
        <path id="Path_272" d="M48 23.124a.887.887 0 0 0-1.215.31l-2.661 4.436a.887.887 0 0 0-.124.452h1.907l2.386-3.983A.887.887 0 0 0 48 23.124z" class="cls-3" transform="translate(-4.632 -2.259)"/>
        <path id="Path_273" fill="#57b7eb" d="M49.661 20H47a5.322 5.322 0 0 1 5.322 5.322v7.1h2.661v-7.1A5.322 5.322 0 0 0 49.661 20z" transform="translate(-4.971 -1.92)"/>
        <path id="Rectangle_28" d="M0 0H4V3H0z" class="cls-1" transform="translate(33.599 22)"/>
        <path id="Rectangle_29" d="M0 0H3V3H0z" class="cls-7" transform="translate(37.599 22)"/>
        <path id="Path_274" d="M21.628 23.531V12H3l6.209 5.322v29.272h12.419V39.5" class="cls-7" transform="translate(0 -1.017)"/>
        <path id="Path_275" d="M38 8h10.644v5.322a5.322 5.322 0 0 1-5.322 5.322A5.322 5.322 0 0 1 38 13.322z" class="cls-5" transform="translate(-3.954 -.565)"/>
        <path id="Path_276" d="M50.774 34.887V34A1.774 1.774 0 0 0 49 35.774v.887a1.774 1.774 0 0 0 1.774 1.774h2.661a1.774 1.774 0 0 0 1.774-1.774h-2.661a1.774 1.774 0 0 1-1.774-1.774z" class="cls-7" transform="translate(-5.197 -3.502)"/>
        <path id="Path_277" d="M33.774 34.887V34H32v2.661a1.774 1.774 0 0 0 1.774 1.774h2.661a1.774 1.774 0 0 0 1.774-1.774h-2.661a1.774 1.774 0 0 1-1.774-1.774z" class="cls-7" transform="translate(-3.276 -3.502)"/>
        <path id="Path_278" d="M35.774 57A1.774 1.774 0 0 0 34 58.774v1.774a1.774 1.774 0 0 1 1.774-1.774h7.1V57z" class="cls-9" transform="translate(-3.502 -6.1)"/>
        <path id="Path_279" d="M51.1 57H44v1.774h7.1a1.774 1.774 0 0 1 1.774 1.774v-1.774A1.774 1.774 0 0 0 51.1 57z" class="cls-9" transform="translate(-4.632 -6.1)"/>
        <path id="Path_280" d="M42.548 44h7.1v8.87h-5.326A5.322 5.322 0 0 1 39 47.548 3.548 3.548 0 0 1 42.548 44z" class="cls-6" transform="translate(-4.067 -4.632)"/>
        <path id="Path_281" d="M40.661 13.322v-.887a1.774 1.774 0 0 1 1.774-1.774h6.209V8H38v5.322a5.322 5.322 0 0 0 5.322 5.322 5.065 5.065 0 0 0 1.331-.177 5.322 5.322 0 0 1-3.992-5.145z" class="cls-7" transform="translate(-3.954 -.565)"/>
        <path id="Path_282" d="M38.071 3h-3.184a.887.887 0 0 0-.887.887v3.548a4.435 4.435 0 0 0 3.549 4.347V7.435h7.1A7.1 7.1 0 0 1 38.071 3z" class="cls-3" transform="translate(-3.502)"/>
        <path id="Path_283" d="M19.322 28.548V25L14 32.983l5.322 7.983v-3.548h7.1v-8.87z" class="cls-9" transform="translate(-1.243 -2.485)"/>
        <path id="Path_284" d="M21.1 33.679a7.1 7.1 0 0 1-5.42-2.519L14 33.679l5.322 7.983v-3.548h7.1v-4.435z" class="cls-1" transform="translate(-1.243 -3.181)"/>
        <path id="Path_285" d="M44.774 45.887a.887.887 0 1 0-1.774 0v9.757h1.774z" class="cls-2" transform="translate(-4.519 -4.745)"/>
        <path id="Path_286" d="M9.209 51.916L3 46.594V12l6.209 5.322z" class="cls-6" transform="translate(0 -1.017)"/>
        <path id="Path_287" d="M5.661 37.4V14.28L3 12v34.594l6.209 5.322v-5.153A14.192 14.192 0 0 1 5.661 37.4z" class="cls-2" transform="translate(0 -1.017)"/>
        <path id="Path_288" d="M9.548 36.3l-2.031-2.04a.891.891 0 0 0-1.26 1.26l2.661 2.661a.887.887 0 0 0 .63.257z" class="cls-2" transform="translate(-.338 -3.502)"/>
    </g>
</svg>
