<svg xmlns="http://www.w3.org/2000/svg" width="54.167" height="54.167" viewBox="0 0 54.167 54.167">
    <defs>
        <style>
            .cls-1{fill:#ffe152}.cls-1,.cls-2,.cls-4,.cls-5,.cls-6,.cls-7,.cls-8,.cls-9{fill-rule:evenodd}.cls-2{fill:#3d4159}.cls-4{fill:#f74f4f}.cls-5{fill:#2ba1cf}.cls-6{fill:#2a2f4f}.cls-7{fill:#eab599}.cls-8{fill:#f6caae}.cls-9{fill:#fff}
        </style>
    </defs>
    <g id="Layer_x0020_1" transform="translate(-653.65 -1647.33)">
        <g id="_1941761214464" transform="translate(653.65 1647.33)">
            <path id="Path_42" d="M707.817 1674.411a27.093 27.093 0 0 1-38.279 24.663 26.56 26.56 0 0 1-2.985-1.59q-1.088-.67-2.1-1.432a27.081 27.081 0 1 1 43.362-21.641zm0 0z" class="cls-1" transform="translate(-653.65 -1647.33)"/>
            <path id="Path_43" d="M707.817 1674.411a27.093 27.093 0 0 1-38.279 24.663 26.56 26.56 0 0 1-2.985-1.59q-1.088-.67-2.1-1.432a27.081 27.081 0 1 1 43.362-21.641zm0 0z" class="cls-1" transform="translate(-653.65 -1647.33)"/>
            <path id="Path_44" d="M703.068 1719.442v3.094a26.83 26.83 0 0 1-8.878 3.142c-.683.115-1.372.2-2.073.26-.435.042-.87.066-1.311.085-.357.018-.719.024-1.082.024-.81 0-1.607-.036-2.4-.1a26.69 26.69 0 0 1-5.8-1.16 27.117 27.117 0 0 1-5.143-2.242v-3.094a10.07 10.07 0 0 1 7.458-9.724c.157-.042.314-.078.477-.115a10.284 10.284 0 0 1 1.311-.193c.272-.024.544-.036.822-.036H693a9.957 9.957 0 0 1 2.133.229c.042.006.079.018.121.024.115.03.236.054.344.091h.012a10.076 10.076 0 0 1 7.458 9.724zm0 0z" class="cls-2" transform="translate(-662.643 -1671.88)"/>
            <path id="Path_45" fill="#66baed" fill-rule="evenodd" d="M700.5 1709.75l-.024.115-3.487 16.221c-.786.072-1.589.1-2.393.1s-1.608-.036-2.4-.1l-3.487-16.221-.024-.115h11.821zm0 0z" transform="translate(-667.514 -1672.027)"/>
            <g id="Group_2" transform="translate(24.385 41.132)">
                <path id="Path_46" d="M699.4 1715.39l-2.7 4.333-2.7-4.333zm0 0z" class="cls-4" transform="translate(-694 -1715.39)"/>
            </g>
            <path id="Path_47" d="M699.322 1730.4c-.822.078-1.656.115-2.5.115s-1.674-.042-2.5-.115l2.5-9.718 2.5 9.712zm0 0z" class="cls-4" transform="translate(-669.745 -1676.352)"/>
            <g id="Group_3" transform="translate(21.17 36.067)">
                <path id="Path_48" d="M694.59 1712.558l-4.532 2.52-1.378-6.412 2.816-1.656 3.094 5.554zm0 0z" class="cls-5" transform="translate(-688.68 -1707.01)"/>
            </g>
            <g id="Group_4" transform="translate(27.081 36.067)">
                <path id="Path_49" d="M698.46 1712.558l4.532 2.52 1.378-6.412-2.816-1.656-3.094 5.554zm0 0z" class="cls-5" transform="translate(-698.46 -1707.01)"/>
            </g>
            <path id="Path_50" d="M708.179 1710.405l-2.931 7.639h1.438l-3.052 7.422c-.683.115-1.372.2-2.073.26-.435.042-.87.067-1.311.085l4.823-16.97 3.1 1.565zm0 0z" class="cls-6" transform="translate(-672.088 -1671.667)"/>
            <path id="Path_51" d="M683.5 1710.477l2.931 7.639h-1.438l3.052 7.421c.683.115 1.372.2 2.073.26.435.042.87.067 1.311.085l-4.792-16.861-3.137 1.456zm0 0z" class="cls-6" transform="translate(-665.46 -1671.738)"/>
            <path id="Path_52" d="M699.706 1702.96v4.406a3.593 3.593 0 0 1-2.532 3.433 3.653 3.653 0 0 1-1.064.157 3.59 3.59 0 0 1-3.59-3.59v-4.406h7.18zm0 0z" class="cls-7" transform="translate(-669.029 -1669.34)"/>
            <path id="Path_53" d="M701.118 1709.79v.278a2.6 2.6 0 1 1-5.028.471c.236.012.484.024.725.024a12.818 12.818 0 0 0 1.994-.157 12.243 12.243 0 0 0 2.309-.61zm0 0z" class="cls-8" transform="translate(-670.442 -1672.043)"/>
            <path id="Path_54" d="M677.8 1688.822a3.335 3.335 0 0 1-2.8 3.294 3.1 3.1 0 0 1-.532.042 3.339 3.339 0 1 1 0-6.678 3.1 3.1 0 0 1 .532.042 3.342 3.342 0 0 1 2.8 3.3zm0 0z" class="cls-8" transform="translate(-660.562 -1662.424)"/>
            <path id="Path_55" d="M680.045 1688.85a3.336 3.336 0 0 1-2.8 3.294 12.373 12.373 0 0 1-.441-3.294 12.637 12.637 0 0 1 .441-3.3 3.342 3.342 0 0 1 2.8 3.3zm0 0z" class="cls-7" transform="translate(-662.81 -1662.452)"/>
            <path id="Path_56" d="M677.047 1690.227a1.194 1.194 0 1 1-1.191-1.2 1.189 1.189 0 0 1 1.191 1.2zm0 0z" class="cls-7" transform="translate(-661.963 -1663.829)"/>
            <path id="Path_57" d="M714.76 1688.822a3.336 3.336 0 0 0 2.8 3.294 3.171 3.171 0 0 0 .538.042 3.339 3.339 0 1 0 0-6.678 3.171 3.171 0 0 0-.538.042 3.342 3.342 0 0 0-2.8 3.3zm0 0z" class="cls-8" transform="translate(-677.829 -1662.424)"/>
            <path id="Path_58" d="M714.76 1688.85a3.336 3.336 0 0 0 2.8 3.294 12.373 12.373 0 0 0 0-6.593 3.342 3.342 0 0 0-2.8 3.299zm0 0z" class="cls-7" transform="translate(-677.829 -1662.452)"/>
            <path id="Path_59" d="M702.751 1672.105v4.732a12.425 12.425 0 0 1-10.431 12.263c-.018.006-.042.006-.06.012a12 12 0 0 1-1.934.151 12.425 12.425 0 0 1-12.425-12.425v-4.732a12.417 12.417 0 0 1 12.425-12.425 12.707 12.707 0 0 1 1.934.151 12.429 12.429 0 0 1 10.491 12.274zm0 0z" class="cls-7" transform="translate(-663.245 -1652.216)"/>
            <path id="Path_60" d="M720.7 1690.227a1.194 1.194 0 1 1-1.2-1.2 1.194 1.194 0 0 1 1.2 1.2zm0 0z" class="cls-7" transform="translate(-679.233 -1663.829)"/>
            <path id="Path_61" d="M705.287 1672.2v4.732a12.425 12.425 0 0 1-10.431 12.262c-.018.006-.042.006-.061.012a12.424 12.424 0 0 1-10.485-12.274v-4.732a10.621 10.621 0 1 1 20.983 0zm0 0z" class="cls-8" transform="translate(-665.781 -1652.315)"/>
            <path id="Path_62" d="M692.246 1685.958a1.408 1.408 0 1 1-1.408-1.408 1.406 1.406 0 0 1 1.408 1.408zm0 0z" class="cls-2" transform="translate(-667.807 -1662.056)"/>
            <path id="Path_63" d="M705.666 1685.958a1.408 1.408 0 1 1-1.408-1.408 1.406 1.406 0 0 1 1.408 1.408zm0 0z" class="cls-2" transform="translate(-673.116 -1662.056)"/>
            <path id="Path_64" d="M692.819 1686.064a.6.6 0 1 1-.6-.6.606.606 0 0 1 .6.6zm0 0z" class="cls-9" transform="translate(-668.669 -1662.416)"/>
            <path id="Path_65" d="M706.359 1686.064a.6.6 0 1 1-.6-.6.606.606 0 0 1 .6.6zm0 0z" class="cls-9" transform="translate(-674.026 -1662.416)"/>
            <path id="Path_66" d="M698.557 1691.035h-2.817a.607.607 0 1 1 0-1.215h2.816a.607.607 0 1 1 0 1.215zm0 0z" class="cls-7" transform="translate(-670.062 -1664.141)"/>
            <path id="Path_67" d="M696.289 1697.008a6.235 6.235 0 0 1-3.028-.786.552.552 0 0 1 .532-.967 5.159 5.159 0 0 0 4.992 0 .552.552 0 0 1 .532.967 6.3 6.3 0 0 1-3.028.786zm0 0z" class="cls-7" transform="translate(-669.209 -1666.265)"/>
            <path id="Path_68" d="M702.751 1666.592v4.847h-2.315v-3.8l-16.692-3.1-3.529-.659v7.554H677.9v-4.847a10 10 0 0 1 10-10h4.847c.133 0 .266 0 .393.006a10 10 0 0 1 9.611 9.999zm0 0z" class="cls-6" transform="translate(-663.245 -1650.994)"/>
            <path id="Path_69" d="M706.577 1666.6v4.847h-2.315v-3.8l-16.692-3.1a9.578 9.578 0 0 1 19.007 2.049zm0 0z" class="cls-2" transform="translate(-667.071 -1650.998)"/>
            <path id="Path_70" d="M679.077 1716.744v3.336a1.352 1.352 0 0 1-.852 1.257 1.4 1.4 0 0 1-.5.1 1.355 1.355 0 0 1-1.354-1.354v-3.336a1.352 1.352 0 0 1 1.855-1.257 1.267 1.267 0 0 1 .453.3 1.352 1.352 0 0 1 .4.961zm0 0z" class="cls-7" transform="translate(-662.639 -1674.258)"/>
            <path id="Path_71" d="M679.734 1716.807v5.9c0 .568-.35-1.511-.852-1.311a1.361 1.361 0 0 1-.852-1.257v-3.336a1.352 1.352 0 0 1 .852-1.257 1.273 1.273 0 0 1 .453.3 1.352 1.352 0 0 1 .4.961zm0 0z" class="cls-8" transform="translate(-663.296 -1674.322)"/>
            <path id="Path_72" d="M677.158 1723.136v3.149a2.806 2.806 0 0 1-.55 1.674 26.8 26.8 0 0 1-5.089-3.027v-1.8a2.82 2.82 0 0 1 2.822-2.816 2.906 2.906 0 0 1 1.052.2 2.824 2.824 0 0 1 1.771 2.617zm0 0z" class="cls-7" transform="translate(-660.72 -1676.209)"/>
            <path id="Path_73" d="M678.535 1723.271v3.149a2.806 2.806 0 0 1-.55 1.674A26.576 26.576 0 0 1 675 1726.5v-3.227a2.82 2.82 0 0 1 1.771-2.617 2.851 2.851 0 0 1 .943.623 2.819 2.819 0 0 1 .828 1.994zm0 0z" class="cls-8" transform="translate(-662.097 -1676.343)"/>
            <path id="Path_74" fill="#3fb777" fill-rule="evenodd" d="M730.445 1657.132a9.8 9.8 0 1 1-9.8-9.8 9.8 9.8 0 0 1 9.8 9.8zm0 0z" transform="translate(-676.278 -1647.33)"/>
            <path id="Path_75" fill="#fefefe" fill-rule="evenodd" d="M721.539 1664.113l-2.629-2.635 6.37-6.37 2.635 2.635-6.37 6.37zm-2.877-2.169l2.417 2.417-3.62 1.209 1.209-3.62zm10.062-5l-.459.459-2.641-2.635.459-.459a1.182 1.182 0 0 1 1.668 0l.973.973a1.182 1.182 0 0 1 0 1.668zm.001-.005z" transform="translate(-678.897 -1649.953)"/>
        </g>
    </g>
</svg>
