<svg xmlns="http://www.w3.org/2000/svg" height="512pt" version="1.1" viewBox="0 0 512 512" width="512pt">
<g id="surface1">
<path d="M 512 464.308594 L 512 512 L 298.539062 512 L 298.539062 464.308594 C 298.539062 422.308594 322.929688 385.898438 358.289062 368.5 C 346.679688 356.808594 339.488281 340.730469 339.488281 323 C 339.488281 287.390625 368.460938 258.410156 404.070312 258.410156 C 404.46875 258.410156 404.871094 258.410156 405.269531 258.421875 C 440.339844 259.070312 468.660156 287.789062 468.660156 323 C 468.660156 340.339844 461.769531 356.089844 450.609375 367.710938 C 486.851562 384.789062 512 421.660156 512 464.308594 Z M 512 464.308594 " style=" stroke:none;fill-rule:nonzero;fill:rgb(42.745098%,46.27451%,90.588235%);fill-opacity:1;" />
<path d="M 512 464.308594 L 512 512 L 405.269531 512 L 405.269531 258.421875 C 440.339844 259.070312 468.660156 287.789062 468.660156 323 C 468.660156 340.339844 461.769531 356.089844 450.609375 367.710938 C 486.851562 384.789062 512 421.660156 512 464.308594 Z M 512 464.308594 " style=" stroke:none;fill-rule:nonzero;fill:rgb(22.745098%,30.196078%,89.019608%);fill-opacity:1;" />
<path d="M 107.789062 0 L 404.210938 0 L 404.210938 192.5 L 107.789062 192.5 Z M 107.789062 0 " style=" stroke:none;fill-rule:nonzero;fill:rgb(100%,71.764706%,30.980392%);fill-opacity:1;" />
<path d="M 256 0 L 404.210938 0 L 404.210938 192.5 L 256 192.5 Z M 256 0 " style=" stroke:none;fill-rule:nonzero;fill:rgb(100%,60.392157%,0%);fill-opacity:1;" />
<path d="M 404.210938 0 L 256 129.140625 L 107.789062 0 Z M 404.210938 0 " style=" stroke:none;fill-rule:nonzero;fill:rgb(100%,87.45098%,28.235294%);fill-opacity:1;" />
<path d="M 404.210938 0 L 256 129.140625 L 256 0 Z M 404.210938 0 " style=" stroke:none;fill-rule:nonzero;fill:rgb(100%,83.137255%,0%);fill-opacity:1;" />
<path d="M 213.460938 464.308594 L 213.460938 512 L 0 512 L 0 464.308594 C 0 422.308594 24.390625 385.898438 59.75 368.5 C 48.140625 356.808594 40.949219 340.730469 40.949219 323 C 40.949219 287.390625 69.921875 258.410156 105.53125 258.410156 C 105.929688 258.410156 106.328125 258.410156 106.730469 258.421875 C 141.800781 259.070312 170.121094 287.789062 170.121094 323 C 170.121094 340.339844 163.230469 356.089844 152.070312 367.710938 C 188.308594 384.789062 213.460938 421.660156 213.460938 464.308594 Z M 213.460938 464.308594 " style=" stroke:none;fill-rule:nonzero;fill:rgb(42.745098%,46.27451%,90.588235%);fill-opacity:1;" />
<path d="M 213.460938 464.308594 L 213.460938 512 L 106.730469 512 L 106.730469 258.421875 C 141.800781 259.070312 170.121094 287.789062 170.121094 323 C 170.121094 340.339844 163.230469 356.089844 152.070312 367.710938 C 188.308594 384.789062 213.460938 421.660156 213.460938 464.308594 Z M 213.460938 464.308594 " style=" stroke:none;fill-rule:nonzero;fill:rgb(22.745098%,30.196078%,89.019608%);fill-opacity:1;" />
<path d="M 362.730469 464.308594 L 362.730469 512 L 149.269531 512 L 149.269531 464.308594 C 149.269531 422.308594 173.660156 385.898438 209.019531 368.5 C 197.410156 356.808594 190.21875 340.730469 190.21875 323 C 190.21875 287.390625 219.191406 258.410156 254.800781 258.410156 C 255.199219 258.410156 255.601562 258.410156 256 258.421875 C 291.070312 259.070312 319.390625 287.789062 319.390625 323 C 319.390625 340.339844 312.5 356.089844 301.339844 367.710938 C 337.578125 384.789062 362.730469 421.660156 362.730469 464.308594 Z M 362.730469 464.308594 " style=" stroke:none;fill-rule:nonzero;fill:rgb(21.176471%,80.392157%,56.470588%);fill-opacity:1;" />
<path d="M 362.730469 464.308594 L 362.730469 512 L 256 512 L 256 258.421875 C 291.070312 259.070312 319.390625 287.789062 319.390625 323 C 319.390625 340.339844 312.5 356.089844 301.339844 367.710938 C 337.578125 384.789062 362.730469 421.660156 362.730469 464.308594 Z M 362.730469 464.308594 " style=" stroke:none;fill-rule:nonzero;fill:rgb(0%,73.333333%,39.215686%);fill-opacity:1;" />
</g>
</svg>