<svg id="Capa_1" enable-background="new 0 0 504.5 504.5" height="512" viewBox="0 0 504.5 504.5" width="512" xmlns="http://www.w3.org/2000/svg"><g><path d="m148.57 302.5v35.999h-77.419l54.829-25.499z" fill="#ffcebf"/><path d="m148.57 302.5-2.36 26.87h-10.4l-6.58-10.95c-1.83-3.05-5.64-4.25-8.88-2.8l5.63-2.62z" fill="#ffb09e"/><path d="m212.43 280.98v152.32h-66.22v-103.93c0-19.91-10.56-38.32-27.74-48.39l46.98-7.063z" fill="#ddeafb"/><path d="m212.43 280.98v152.32h-27.69v-152.32l13.845-7.063z" fill="#cbe2ff"/><path d="m242 393.59c-3.14 3.13-7.46 5.07-12.25 5.07 9.57 0 17.32 7.75 17.32 17.32 0 4.79-1.94 9.11-5.07 12.25-3.14 3.13-7.46 5.07-12.25 5.07 9.57 0 17.32 7.76 17.32 17.32 0 4.79-1.94 9.11-5.07 12.25-3.14 3.13-7.46 5.07-12.25 5.07h-120.99c-10.36 0-20.57-2.41-29.84-7.04-4.63-2.31-9.49-4.08-14.51-5.26-5-1.18-10.14-1.79-15.32-1.79l-8.257-70.6 8.257-53.87h163.34v-.01h17.32c9.57 0 17.32 7.76 17.32 17.32 0 4.78-1.94 9.12-5.07 12.25-3.14 3.13-7.46 5.07-12.25 5.07 9.57 0 17.32 7.76 17.32 17.33 0 4.78-1.94 9.11-5.07 12.25z" fill="#ffcebf"/><path d="m242 393.59c-3.14 3.13-7.46 5.07-12.25 5.07 9.57 0 17.32 7.75 17.32 17.32 0 4.79-1.94 9.11-5.07 12.25-3.14 3.13-7.46 5.07-12.25 5.07 9.57 0 17.32 7.76 17.32 17.32 0 4.79-1.94 9.11-5.07 12.25-3.14 3.13-7.46 5.07-12.25 5.07h-24.55c4.79 0 9.11-1.94 12.25-5.07 3.13-3.14 5.07-7.46 5.07-12.25 0-9.56-7.75-17.32-17.32-17.32 4.79 0 9.11-1.94 12.25-5.07 3.13-3.14 5.07-7.46 5.07-12.25 0-9.57-7.75-17.32-17.32-17.32 4.79 0 9.11-1.94 12.25-5.07 3.13-3.14 5.07-7.47 5.07-12.25 0-9.57-7.75-17.33-17.32-17.33 4.79 0 9.11-1.94 12.25-5.07 3.13-3.13 5.07-7.47 5.07-12.25 0-9.41-7.51-17.07-16.87-17.31h6.78v-.01h17.32c9.57 0 17.32 7.76 17.32 17.32 0 4.78-1.94 9.12-5.07 12.25-3.14 3.13-7.46 5.07-12.25 5.07 9.57 0 17.32 7.76 17.32 17.33 0 4.78-1.94 9.11-5.07 12.25z" fill="#ffb09e"/><path d="m205.65 329.38h-17.77v-.01h17.32c.15 0 .3 0 .45.01z" fill="#ffcebf"/><path d="m49.09 329.38v129.17c0 5.186-4.204 9.39-9.39 9.39h-30.31c-5.186 0-9.39-4.204-9.39-9.39v-119.78c0-5.186 4.204-9.39 9.39-9.39z" fill="#fe646f"/><path d="m49.09 329.38v129.17c0 5.186-4.204 9.39-9.39 9.39h-21.533c3.757-.996 6.373-4.397 6.373-8.284v-130.276z" fill="#fd4755"/><path d="m411.097 235.011-5.597-32.881 5.597-32.881c16.109 0 29.169 13.059 29.169 29.169v7.425c0 16.109-13.06 29.168-29.169 29.168z" fill="#ddeafb"/><path d="m411.1 63.84v276.58c0 15.07-12.22 27.28-27.29 27.28-7.63 0-15.17-1.13-22.37-3.3-1.36-.4-2.7-.85-4.03-1.33-8.4-3.04-16.27-7.54-23.24-13.35l-82.44-68.74-4.66-76.928 4.66-80.772 82.44-68.74c8.07-6.73 17.36-11.7 27.27-14.68 7.2-2.17 14.74-3.3 22.37-3.3 7.53 0 14.36 3.05 19.3 7.99 4.93 4.94 7.99 11.76 7.99 19.29z" fill="#fff0ad"/><path d="m411.1 63.84v276.58c0 15.07-12.22 27.28-27.29 27.28-7.63 0-15.17-1.13-22.37-3.3 8.5-4.62 14.27-13.62 14.27-23.98v-276.58c0-7.53-3.05-14.35-7.99-19.29-1.85-1.85-3.96-3.43-6.28-4.69 7.2-2.17 14.74-3.3 22.37-3.3 7.53 0 14.36 3.05 19.3 7.99 4.93 4.94 7.99 11.76 7.99 19.29z" fill="#ffd15b"/><path d="m251.73 123.28v157.7h-134.07l-7.8-78.85 7.8-78.85z" fill="#ffd15b"/><path d="m224.84 123.28h26.89v157.7h-26.89z" fill="#ffc344"/><path d="m211.769 192.354h-54.148c-2.523 0-4.568-2.045-4.568-4.568v-18.766c0-2.523 2.045-4.568 4.568-4.568h54.148c2.523 0 4.568 2.045 4.568 4.568v18.766c0 2.522-2.045 4.568-4.568 4.568z" fill="#fe646f"/><g><path d="m497 211.552h-17.113c-4.143 0-7.5-3.358-7.5-7.5s3.357-7.5 7.5-7.5h17.113c4.143 0 7.5 3.358 7.5 7.5s-3.357 7.5-7.5 7.5z" fill="#fff0ad"/></g><g><path d="m471.779 172.02c-2.89 0-5.644-1.68-6.876-4.497-1.659-3.795.072-8.217 3.867-9.876l15.68-6.857c3.795-1.659 8.217.072 9.877 3.867 1.659 3.795-.072 8.217-3.867 9.876l-15.68 6.857c-.977.427-1.998.63-3.001.63z" fill="#fff0ad"/></g><g><path d="m487.451 257.946c-1.004 0-2.023-.203-3.001-.63l-15.68-6.857c-3.796-1.66-5.526-6.082-3.866-9.877 1.659-3.795 6.084-5.524 9.876-3.866l15.68 6.857c3.796 1.66 5.526 6.082 3.866 9.877-1.231 2.816-3.985 4.496-6.875 4.496z" fill="#fff0ad"/></g><path d="m117.66 123.28v157.7h-39.56c-10.37 0-18.77-8.4-18.77-18.77v-19.7l4.67-7.5-4.67-7.5v-85.46c0-10.37 8.4-18.77 18.77-18.77h39.56z" fill="#ddeafb"/><path d="m90.78 123.28h26.88v157.7h-26.88z" fill="#cbe2ff"/><g><path d="m85.19 235.01c0 4.14-3.36 7.5-7.5 7.5h-18.36v-15h18.36c4.14 0 7.5 3.36 7.5 7.5z" fill="#fe646f"/></g></g></svg>