<svg id="Capa_1" enable-background="new 0 0 512 512" height="512" viewBox="0 0 512 512" width="512" xmlns="http://www.w3.org/2000/svg"><g fill="#a65d4e"><path d="m240.547 177.574h30.905v53.781h-30.905z"/><path d="m194.823 119.125c0 12.535-7.268 22.909-16.233 22.909s-17.395-13.725-17.395-26.26 8.429-19.346 17.395-19.346 16.233 10.162 16.233 22.697z"/><path d="m317.177 119.125c0 12.535 7.268 22.909 16.233 22.909s17.395-13.725 17.395-26.26-8.429-19.346-17.395-19.346-16.233 10.162-16.233 22.697z"/></g><path d="m186.943 126.331v-51.291c0-35.97 29.159-65.129 65.129-65.129h7.857c35.97 0 65.129 29.159 65.129 65.129v51.291c0 38.114-30.898 69.012-69.012 69.012h-.09c-38.116 0-69.013-30.898-69.013-69.012z" fill="#d47f6c"/><path d="m259.929 9.911h-7.857c-3.935 0-7.781.368-11.524 1.037 30.469 5.444 53.605 32.057 53.605 64.092v51.29c0 32.815-22.911 60.261-53.605 67.264 4.956 1.131 10.109 1.748 15.408 1.748h.09c38.114 0 69.012-30.898 69.012-69.013v-51.289c-.001-35.97-29.16-65.129-65.129-65.129z" fill="#a65d4e"/><path d="m334.163 96.444c-9.054 1.637-9.105 18.358-9.105 18.358s-7.433 3.131-9.016-1.196c-13.33-36.435-64.7-30.881-88.918-59.677-12.072-14.354-24.899 8.223-25.813 19.291-.921 11.062-2.948 36.46-5.352 40.386-2.411 3.926-9.016 1.196-9.016 1.196s-.051-16.721-9.105-18.358c0 0-7.814-20.193-3.478-42.675 5.3-27.508 20.582-53.769 81.64-53.769s76.34 26.261 81.641 53.769c4.335 22.482-3.478 42.675-3.478 42.675z" fill="#8c9eff"/><path d="m337.641 53.769c-5.301-27.508-20.583-53.769-81.641-53.769-5.518 0-10.656.217-15.453.628 48.281 4.132 61.367 28.119 66.188 53.141 3.869 20.065-1.935 38.294-3.228 41.984 5.414 4.612 9.785 10.338 12.534 17.853 1.583 4.327 9.016 1.196 9.016 1.196s.051-16.721 9.105-18.358c.001 0 7.814-20.193 3.479-42.675z" fill="#7488ed"/><path d="m197.23 221.879h117.54c20.514 0 37.143 16.63 37.143 37.143v22.362h-191.826v-22.362c0-20.514 16.63-37.143 37.143-37.143z" fill="#ffd740"/><path d="m314.77 221.879h-30.905c20.514 0 37.143 16.629 37.143 37.143v22.361h30.905v-22.361c0-20.514-16.63-37.143-37.143-37.143z" fill="#ffca28"/><path d="m260.763 251.789h-9.48c-5.916 0-10.713-4.796-10.713-10.713v-19.198h30.905v19.198c0 5.917-4.796 10.713-10.712 10.713z" fill="#f5f5f5"/><ellipse cx="256" cy="371.895" fill="#ebad88" rx="37.091" ry="37.087"/><path d="m256 334.809c-5.518 0-10.749 1.214-15.455 3.374 12.766 5.861 21.636 18.747 21.636 33.712s-8.87 27.852-21.636 33.712c4.706 2.16 9.937 3.374 15.455 3.374 20.485 0 37.091-16.604 37.091-37.087s-16.606-37.085-37.091-37.085z" fill="#e8916f"/><path d="m288.971 512h-65.942c-13.656 0-24.726-11.07-24.726-24.726v-35.022c0-23.897 19.373-43.27 43.27-43.27h28.854c23.897 0 43.27 19.373 43.27 43.27v35.022c0 13.656-11.07 24.726-24.726 24.726z" fill="#80deea"/><path d="m270.424 408.982h-28.848c-.346 0-.687.018-1.03.026 23.421.549 42.242 19.691 42.242 43.242v35.026c0 13.655-11.071 24.724-24.727 24.724h30.909c13.657 0 24.727-11.069 24.727-24.724v-35.026c0-23.897-19.374-43.268-43.273-43.268z" fill="#4dd0e1"/><ellipse cx="402.303" cy="371.895" fill="#d47f6c" rx="37.091" ry="37.087"/><path d="m402.303 334.809c-5.518 0-10.749 1.214-15.455 3.374 12.766 5.861 21.636 18.747 21.636 33.712s-8.87 27.852-21.636 33.712c4.706 2.16 9.937 3.374 15.455 3.374 20.485 0 37.091-16.604 37.091-37.087s-16.606-37.085-37.091-37.085z" fill="#a65d4e"/><path d="m435.274 512h-65.942c-13.656 0-24.726-11.07-24.726-24.726v-35.022c0-23.897 19.373-43.27 43.27-43.27h28.854c23.897 0 43.27 19.373 43.27 43.27v35.022c0 13.656-11.07 24.726-24.726 24.726z" fill="#ff3d7a"/><path d="m416.727 408.982h-28.848c-.346 0-.687.018-1.03.026 23.421.549 42.242 19.691 42.242 43.242v35.026c0 13.655-11.071 24.724-24.727 24.724h30.909c13.656 0 24.727-11.069 24.727-24.724v-35.026c0-23.897-19.374-43.268-43.273-43.268z" fill="#eb3870"/><ellipse cx="109.697" cy="371.895" fill="#ebad88" rx="37.091" ry="37.087"/><path d="m109.697 334.809c-5.518 0-10.749 1.214-15.455 3.374 12.766 5.861 21.636 18.747 21.636 33.712s-8.87 27.852-21.636 33.712c4.706 2.16 9.937 3.374 15.455 3.374 20.485 0 37.091-16.604 37.091-37.087s-16.606-37.085-37.091-37.085z" fill="#e8916f"/><path d="m142.668 512h-65.942c-13.656 0-24.726-11.07-24.726-24.726v-35.022c0-23.897 19.373-43.27 43.27-43.27h28.854c23.897 0 43.27 19.373 43.27 43.27v35.022c0 13.656-11.07 24.726-24.726 24.726z" fill="#8c9eff"/><path d="m124.121 408.982h-28.848c-.346 0-.687.018-1.03.026 23.421.549 42.242 19.691 42.242 43.242v35.026c0 13.655-11.071 24.724-24.727 24.724h30.909c13.657 0 24.727-11.069 24.727-24.724v-35.026c0-23.897-19.374-43.268-43.273-43.268z" fill="#7488ed"/><path d="m402.286 273.884h-292.572c-4.143 0-7.5 3.357-7.5 7.5v23.731c0 4.143 3.357 7.5 7.5 7.5s7.5-3.357 7.5-7.5v-16.231h131.309v16.231c0 4.143 3.357 7.5 7.5 7.5s7.5-3.357 7.5-7.5v-16.231h131.264v16.231c0 4.143 3.357 7.5 7.5 7.5s7.5-3.357 7.5-7.5v-23.731c-.001-4.143-3.358-7.5-7.501-7.5z" fill="#8c9eff"/></svg>