<svg id="color" enable-background="new 0 0 24 24" height="512" viewBox="0 0 24 24" width="512" xmlns="http://www.w3.org/2000/svg"><path d="m21 1h-18c-1.654 0-3 1.346-3 3v16c0 1.654 1.346 3 3 3h18c1.654 0 3-1.346 3-3v-16c0-1.654-1.346-3-3-3z" fill="#607d8b"/><path d="m21 21h-18c-.551 0-1-.448-1-1v-14h20v14c0 .552-.449 1-1 1z" fill="#fff"/><path d="m12 1h-9c-1.654 0-3 1.346-3 3v16c0 1.654 1.346 3 3 3h9v-2h-9c-.551 0-1-.448-1-1v-14h10z" fill="#546d79"/><path d="m12 6h-10v14c0 .552.449 1 1 1h9z" fill="#dedede"/><g fill="#2196f3"><circle cx="3.75" cy="16.25" r=".75"/><path d="m19 17c-.337 0-.632-.225-.723-.549l-1.25-4.5c-.111-.399.123-.813.522-.924.396-.11.813.123.923.521l.528 1.9.527-1.899c.11-.398.524-.632.923-.521s.633.524.522.924l-1.25 4.5c-.09.323-.385.548-.722.548z"/><path d="m9.75 17h-2c-.965 0-1.75-.785-1.75-1.75v-2.5c0-.965.785-1.75 1.75-1.75h2c.414 0 .75.336.75.75s-.336.75-.75.75h-2c-.138 0-.25.112-.25.25v.5h2.25c.414 0 .75.336.75.75v2.25c0 .414-.336.75-.75.75zm-2.25-2.25v.5c0 .138.112.25.25.25h1.25v-.75z"/><path d="m14.25 17h-.5c-.965 0-1.75-.785-1.75-1.75v-2.5c0-.965.785-1.75 1.75-1.75h.5c.965 0 1.75.785 1.75 1.75v2.5c0 .965-.785 1.75-1.75 1.75zm-.5-4.5c-.138 0-.25.112-.25.25v2.5c0 .138.112.25.25.25h.5c.138 0 .25-.112.25-.25v-2.5c0-.138-.112-.25-.25-.25z"/></g><path d="m20.404 14h-2.807l.681 2.451c.09.324.385.549.722.549s.632-.225.723-.549z" fill="#1d83d4"/><path d="m7.75 15.5c-.138 0-.25-.112-.25-.25v-.5h1.5v.75zm2.75-1.5h-4.5v1.25c0 .965.785 1.75 1.75 1.75h2c.414 0 .75-.336.75-.75z" fill="#1d83d4"/><path d="m14.5 14h-1v1.25c0 .138.112.25.25.25h.5c.138 0 .25-.112.25-.25z" fill="#dedede"/><path d="m16 14h-1.5v1.25c0 .138-.112.25-.25.25h-.5c-.138 0-.25-.112-.25-.25v-1.25h-1.5v1.25c0 .965.785 1.75 1.75 1.75h.5c.965 0 1.75-.785 1.75-1.75z" fill="#1d83d4"/></svg>