<svg height="512" viewBox="0 0 256 256" width="512" xmlns="http://www.w3.org/2000/svg"><path d="m148.51 139.23c-3.12 24.39-25.06 44.74-54.5 50.85a3.885 3.885 0 0 0 -3.12 3.31 51.963 51.963 0 0 1 -40.04 44.83 61.9 61.9 0 0 0 14.96-40.45c0-1.07-.04-2.14-.1-3.2a3.929 3.929 0 0 0 -3.38-3.62c-34.03-5.05-59.82-29.03-59.82-57.86 0-40.128 48.627-68.143 95.6-56.05v.01a78.45 78.45 0 0 1 9.12 2.91c1.51 22 18.07 40.78 41.54 49.8a47.393 47.393 0 0 1 -.26 9.47z" fill="#f0c020"/><path d="m148.51 139.23h-.02c-27.98-9.61-50.12-32.77-50.38-62.18a78.45 78.45 0 0 1 9.12 2.91c1.51 22 18.07 40.78 41.54 49.8a47.393 47.393 0 0 1 -.26 9.47z" fill="#f0ab20"/><path d="m193.67 134.5c34.03-5.05 59.82-29.03 59.82-57.86 0-32.51-32.77-58.86-73.19-58.86s-73.19 26.35-73.19 58.86c0 1.11.04 2.22.12 3.32 1.51 22 18.07 40.78 41.54 49.8a84.937 84.937 0 0 0 13.22 3.87 3.885 3.885 0 0 1 3.12 3.31 51.952 51.952 0 0 0 40.04 44.83 61.815 61.815 0 0 1 -14.86-43.65 3.929 3.929 0 0 1 3.38-3.62z" fill="#72c1e8"/><path d="m59.941 179.613q-1.486-.309-2.934-.665a2.5 2.5 0 0 1 1.2-4.855q1.359.335 2.757.626a2.5 2.5 0 1 1 -1.019 4.894zm-12.78-3.821c-20.723-8.3-33.6-24.738-33.6-42.9 0-10.353 4.306-20.257 12.45-28.643a2.5 2.5 0 0 1 3.587 3.484c-7.22 7.434-11.037 16.133-11.037 25.159 0 16.072 11.671 30.731 30.458 38.256a2.5 2.5 0 1 1 -1.86 4.641z" fill="#f9e5af"/><path d="m164.155 123.165q-1.487-.309-2.934-.665a2.5 2.5 0 0 1 1.2-4.855q1.361.335 2.758.626a2.5 2.5 0 1 1 -1.02 4.894zm-12.78-3.821c-33.753-13.52-44.461-47.536-21.147-71.54a2.5 2.5 0 0 1 3.586 3.484c-21 21.621-10.715 51.344 19.421 63.415a2.5 2.5 0 1 1 -1.86 4.641z" fill="#c5e5ff"/><path d="m38.8 85.02a2.494 2.494 0 0 0 1.14-3.34 2.528 2.528 0 0 0 -3.34-1.151.01.01 0 0 0 -.01.011 2.5 2.5 0 0 0 2.21 4.48z"/><path d="m180.3 15.279c-41.352 0-75.505 26.987-75.682 61.1-1.932-.648-3.9-1.239-5.888-1.754a92.608 92.608 0 0 0 -52.61 1.97 2.483 2.483 0 0 0 -1.55 3.17 2.528 2.528 0 0 0 3.17 1.55 87.456 87.456 0 0 1 57.14.44c2.367 23.1 19.855 40.923 41.48 49.74 1.055 27.895-23.238 50-52.86 56.14a6.368 6.368 0 0 0 -5.09 5.479 49.3 49.3 0 0 1 -30.89 40.426 64.36 64.36 0 0 0 10.79-35.77c0-1.01-.03-2.1-.1-3.34a6.471 6.471 0 0 0 -5.5-5.951c-32.321-4.8-57.7-27.445-57.7-55.389 0-16.72 9.26-32.49 25.41-43.26a2.518 2.518 0 0 0 .69-3.471 2.566 2.566 0 0 0 -3.47-.7c-16.365 10.91-27.63 27.841-27.63 47.431 0 31.119 27.9 55.273 61.95 60.33a1.432 1.432 0 0 1 1.25 1.3c.07 1.139.1 2.139.1 3.05a59.662 59.662 0 0 1 -14.36 38.82 2.506 2.506 0 0 0 2.45 4.07 54.4 54.4 0 0 0 41.97-46.99 1.4 1.4 0 0 1 1.15-1.141c31.731-6.6 56.714-29.909 56.861-59.181a87.818 87.818 0 0 0 10.109 2.732 1.376 1.376 0 0 1 1.13 1.14 54.414 54.414 0 0 0 41.98 46.99 2.506 2.506 0 0 0 2.45-4.07 59.505 59.505 0 0 1 -14.26-41.88 1.432 1.432 0 0 1 1.25-1.29c17.98-2.67 34.17-10.56 45.6-22.22a2.517 2.517 0 0 0 -.04-3.54 2.552 2.552 0 0 0 -3.53.03c-10.66 10.9-25.85 18.28-42.77 20.789a6.458 6.458 0 0 0 -5.5 5.941 64.216 64.216 0 0 0 10.68 39.13 49.274 49.274 0 0 1 -30.88-40.44 6.414 6.414 0 0 0 -5.1-5.48c-28.295-5.787-52.89-26.711-52.89-54.54 0-31.453 32.126-56.361 70.68-56.361h.02c38.569 0 70.68 24.921 70.68 56.361a45.958 45.958 0 0 1 -4.11 18.96 2.5 2.5 0 0 0 1.26 3.31 2.549 2.549 0 0 0 3.3-1.261 50.95 50.95 0 0 0 4.55-21.009c0-34.866-34.972-61.361-75.69-61.361z"/><path d="m245.66 103.26a2.556 2.556 0 0 0 -3.48.62.01.01 0 0 0 -.01.01 2.5 2.5 0 0 0 4.1 2.86.01.01 0 0 0 .01-.01 2.5 2.5 0 0 0 -.62-3.48z"/><path d="m68.109 149.936 30.683-30.684a2.5 2.5 0 0 0 -3.535-3.535l-28.564 28.564-10.262-14.83a2.5 2.5 0 0 0 -4.112 2.846l11.967 17.294a2.5 2.5 0 0 0 3.823.345z"/><path d="m198.5 63.14a2.5 2.5 0 0 0 -3.51-.421l-14.69 11.55-14.693-11.55a2.5 2.5 0 1 0 -3.089 3.931l13.736 10.8-13.736 10.8a2.5 2.5 0 0 0 3.089 3.932l14.693-11.553 14.692 11.551a2.5 2.5 0 0 0 3.09-3.932l-13.737-10.8 13.737-10.8a2.5 2.5 0 0 0 .418-3.508z"/></svg>