<svg id="flat" height="512" viewBox="0 0 512 512" width="512" xmlns="http://www.w3.org/2000/svg"><path d="m216 208a79.99993 79.99993 0 0 0 32-64v-16.89173a79.10827 79.10827 0 0 0 -79.10827-79.10827h-.00013a79.10828 79.10828 0 0 0 -70.7566 43.73v.00006a36.6687 36.6687 0 0 1 -32.7975 20.26994h-33.3375v42.53192a53.46807 53.46807 0 0 0 53.46808 53.46808z" fill="#c47220"/><path d="m456.2998 400.30005v15.69995h-101.38964a55.95951 55.95951 0 0 1 -43.72022-21.02l-40.93994-51.16994-39.17993-48.97022a54.32267 54.32267 0 0 1 .92993 10.02v.51026a54.64169 54.64169 0 0 1 -16 38.6299v128h-160v-20.23a310.23235 310.23235 0 0 0 -22.19995-115.26 137.03494 137.03494 0 0 1 -9.80005-50.9099 77.605 77.605 0 0 1 77.6001-77.6001h124.9399a39.99948 39.99948 0 0 1 32.2998 16.40991l59.24028 81.13009 33.91992 46.46 48 16h24a32.29838 32.29838 0 0 1 32.2998 32.30005z" fill="#ffc431"/><path d="m256 416h88a24 24 0 0 1 24 24v24h-112z" fill="#d1e4ff"/><path d="m368 416h104a0 0 0 0 1 0 0v24a24 24 0 0 1 -24 24h-80a0 0 0 0 1 0 0v-48a0 0 0 0 1 0 0z" fill="#bed3f7" transform="matrix(-1 0 0 -1 840 880)"/><path d="m192 416h64v48h-64z" fill="#bed3f7"/><path d="m168 456h328v16h-328z" fill="#ea964b"/><path d="m296 456h200v16h-200z" fill="#db8638"/><path d="m456.2998 400.30005v15.69995h-101.38964a55.95951 55.95951 0 0 1 -43.72022-21.02l-40.93994-51.16994 47.83008-38.27 33.91992 46.45994 48 16h24a32.29838 32.29838 0 0 1 32.2998 32.30005z" fill="#ffceb6"/><rect fill="#ffb401" height="57.661" rx="8" transform="matrix(.819 -.573 .573 .819 -150.629 113.383)" width="16" x="96.533" y="266.788"/><path d="m192 168v52a36 36 0 1 1 -72 0v-52z" fill="#ffceb6"/><path d="m192 168v52a35.8744 35.8744 0 0 1 -2.05 12h-17.95a36.003 36.003 0 0 1 -36-36v-28z" fill="#ffbfa1"/><rect fill="#ffb401" height="32.068" rx="8" transform="matrix(.793 -.61 .61 .793 -201.781 104.167)" width="16" x="44.238" y="332.675"/><path d="m226.56057 327.75736a7.94272 7.94272 0 0 1 -4.40057-9.39386 46.35944 46.35944 0 0 0 1.84-12.99045v-.51005a46.61825 46.61825 0 0 0 -2.39258-14.74285l-2.66716-8.001a7.99965 7.99965 0 0 1 5.06-10.11919l.00073-.00025a7.99967 7.99967 0 0 1 10.11832 5.05977l2.66686 8.0011a62.491 62.491 0 0 1 3.21383 19.80465v.50782a62.26173 62.26173 0 0 1 -2.456 17.39459 7.98583 7.98583 0 0 1 -10.98343 4.98972z" fill="#ffb401"/><path d="m328 392v24l-24-8-54.67-72.89-17.33-23.11 24-16 17.33 23.11z" fill="#548aff"/><path d="m273.33 319.11-24 16-17.33-23.11 24-16z" fill="#7dafff"/><path d="m232 416h-96.4863a64 64 0 0 1 -50.72794-24.97851l-22.77157-29.603 59.05249-42.18034 22.93332 32.76185 72 16 26.53375-13.26688a25.88852 25.88852 0 0 1 11.5777-2.73312 25.88851 25.88851 0 0 1 25.88855 25.88852v22.11148a16 16 0 0 1 -16 16h-56" fill="#ffceb6"/><path d="m216 136v40a48 48 0 0 1 -48 48 48 48 0 0 1 -48-48v-32l1.98712-.33119a101.01493 101.01493 0 0 0 70.01288-47.66881z" fill="#ffceb6"/><circle cx="160" cy="152" fill="#c47220" r="8"/><path d="m192 200h-20.68652a35.08246 35.08246 0 0 1 -24.97071-10.34277l11.31446-11.31446a19.18268 19.18268 0 0 0 13.65625 5.65723h20.68652z" fill="#ffb089"/><circle cx="192" cy="152" fill="#c47220" r="8"/></svg>